<?xml version="1.0" encoding="UTF-8" standalone="no"?>
<!-- Created with Inkscape (http://www.inkscape.org/) -->

<svg
   width="130.41623mm"
   height="130.49529mm"
   viewBox="0 0 130.41623 130.49529"
   version="1.1"
   id="svg5"
   inkscape:version="1.2.2 (1:1.2.2+202305151914+b0a8486541)"
   sodipodi:docname="logo.svg"
   inkscape:export-filename="logo.png"
   inkscape:export-xdpi="99.717651"
   inkscape:export-ydpi="99.717651"
   xmlns:inkscape="http://www.inkscape.org/namespaces/inkscape"
   xmlns:sodipodi="http://sodipodi.sourceforge.net/DTD/sodipodi-0.dtd"
   xmlns="http://www.w3.org/2000/svg"
   xmlns:svg="http://www.w3.org/2000/svg">
  <sodipodi:namedview
     id="namedview7"
     pagecolor="#505050"
     bordercolor="#eeeeee"
     borderopacity="1"
     inkscape:showpageshadow="0"
     inkscape:pageopacity="0"
     inkscape:pagecheckerboard="0"
     inkscape:deskcolor="#505050"
     inkscape:document-units="mm"
     showgrid="false"
     inkscape:zoom="1.5001056"
     inkscape:cx="339.64275"
     inkscape:cy="278.98036"
     inkscape:window-width="1920"
     inkscape:window-height="1143"
     inkscape:window-x="1920"
     inkscape:window-y="0"
     inkscape:window-maximized="1"
     inkscape:current-layer="layer2"
     showguides="true">
    <sodipodi:guide
       position="65.588224,49.522169"
       orientation="1,0"
       id="guide1972"
       inkscape:locked="false" />
    <sodipodi:guide
       position="116.60129,63.935384"
       orientation="0,-1"
       id="guide1974"
       inkscape:locked="false" />
  </sodipodi:namedview>
  <defs
     id="defs2" />
  <g
     inkscape:label="Layer 1"
     inkscape:groupmode="layer"
     id="layer1"
     style="display:inline"
     transform="translate(-39.88579,-92.841604)">
    <circle
       style="display:none;fill:#fbfbfb;fill-opacity:1;stroke-width:0.499999;stroke-linecap:round;stroke-linejoin:round;stop-color:#000000"
       id="path234"
       cx="104.84258"
       cy="158.30244"
       r="65.963661" />
  </g>
  <g
     inkscape:groupmode="layer"
     id="layer2"
     inkscape:label="Layer 2"
     transform="translate(-39.88579,-92.841604)">
    <path
       style="color:#000000;display:inline;fill:#545454;fill-opacity:1;stroke:none;stroke-width:0.981012;stroke-linecap:round;stroke-linejoin:round;stroke-opacity:1;-inkscape-stroke:none"
       d="m 158.62053,125.65555 c 17.4149,29.14094 7.08317,67.5042 -22.2339,84.62092 -29.31706,17.11673 -67.50418,7.08317 -84.620915,-22.23389 -17.116725,-29.31707 -7.083171,-67.50419 22.233889,-84.62092 13.070394,-8.063169 18.307811,-6.552259 18.307811,-6.552259 l -1.03896,3.487309 c -9.275939,2.77217 -16.246401,6.47988 -23.389953,13.53449 0,0 12.319263,18.28316 15.037382,28.75152 1.369865,5.27579 -6.90552,14.25874 2.195838,27.12433 8.001839,11.31131 23.074658,15.1661 35.040068,8.18011 11.96544,-6.986 16.85689,-23.46393 11.2962,-36.15466 -1.36111,-4.22476 -4.06286,-8.77534 -7.20292,-13.98148 -0.24499,-0.40618 7.91322,-1.91054 7.91322,-1.91054 0,0 -9.77633,-1.09643 -10.03002,-1.51798 -3.76377,-6.2542 -7.27297,-12.21712 -8.52042,-17.79177 -0.0524,-0.23423 4.14431,-1.34257 4.14431,-1.34257 0,0 -4.54297,-0.46652 -4.57706,-0.68649 -0.52329,-3.3762 0.008,-6.102559 1.93948,-8.736883 0,0 26.30522,1.048228 43.50595,29.830763 z"
       id="path1109"
       sodipodi:nodetypes="sssccccssscscsscscs"
       inkscape:label="gray" />
    <path
       id="path1485"
       style="display:inline;fill:#4989d6;fill-opacity:1;stroke:none;stroke-width:0.259559px;stroke-linecap:butt;stroke-linejoin:miter;stroke-opacity:1"
       d="m 133.70794,209.79345 c -10.91841,4.40951 -29.5347,8.70096 -40.12158,6.88179 l 9.17164,-35.65156 c 4.19523,0.75063 9.9032,-0.15996 14.74884,-1.59019 z m -54.128654,1.39017 C 64.471045,201.47838 53.839682,190.91145 51.059671,178.83345 L 83.422753,166.9058 c 2.696056,3.59304 4.131041,7.01943 11.106379,11.17817 z m 44.635384,-36.42273 22.24124,26.27336 c 10.0596,-9.0204 16.24777,-20.14936 18.10402,-30.44088 l -32.20345,-7.86314 c -1.3415,3.92849 -4.33712,8.91107 -8.14181,12.03066 z m 9.15191,-18.92213 31.88004,3.56231 c 0.76208,-11.82528 -1.73321,-22.75689 -8.59487,-34.26084 l -28.11485,9.90706 c 3.45575,6.06544 6.06884,12.52579 4.82968,20.79147 z m -4.86684,-20.839 22.45696,-17.73465 c -4.35136,-6.58967 -11.65773,-10.92265 -18.98591,-15.53084 l -12.88227,17.51904 2.91114,4.87079 10.63831,2.00857 -8.32146,1.86789 z m -9.42964,-15.6761 7.43282,-20.270267 -10.99169,-3.369918 c -2.35864,0.962553 -2.84851,4.375745 -2.08185,8.369155 0.11826,0.61601 4.74385,1.30996 4.74385,1.30996 0,0 -4.17961,1.24165 -4.04491,1.70334 1.06845,3.66214 2.96107,7.64718 4.94178,12.25773 z"
       sodipodi:nodetypes="cccccccccccccccccccccccccccccccscsc"
       inkscape:label="blue" />
    <path
       style="display:inline;fill:#ffffff;fill-opacity:0.194316;stroke:none;stroke-width:0.259559px;stroke-linecap:butt;stroke-linejoin:miter;stroke-opacity:1"
       d="m 83.461434,166.30175 -32.048727,13.58987 5.753498,12.7342 30.059362,-20.29967 z m 19.193826,14.59128 -8.302161,34.98262 13.713871,0.9159 0.3091,-34.98439 z m 21.77217,-6.1393 22.31728,26.22064 7.65706,-9.16995 -26.42098,-21.05145 z m 9.24795,-19.63965 31.60719,1.88592 -0.55015,-12.221 -31.01319,5.45896 z m -5.26533,-20.49671 20.98742,-19.28035 -5.4681,-5.26598 -13.54674,14.99467 3.06711,0.97678 -4.63927,0.76343 -3.20078,3.54288 z m -11.66781,-19.77069 9.26556,-15.952314 -4.30994,-1.500811 -7.20761,12.599055 z"
       id="path1555"
       inkscape:label="white"
       sodipodi:nodetypes="ccccccccccccccccccccccccccccccccc" />
    <path
       id="path1520"
       style="display:inline;fill:#191919;fill-opacity:1;stroke:none;stroke-width:0.259559px;stroke-linecap:butt;stroke-linejoin:miter;stroke-opacity:1"
       d="m 132.67988,210.66488 -15.47942,-31.21924 7.46103,-4.93199 22.39631,26.15764 z m -38.175901,6.03464 -15.932663,-6.03277 15.467565,-32.47031 8.996479,2.99462 z m 37.727481,-53.41935 32.17663,8.2218 1.46976,-15.18703 -32.37468,-1.00834 z m -1.44634,-22.91687 26.18425,-14.99786 -7.90145,-10.27674 -21.30758,18.80315 z m -11.45611,-20.52423 15.8154,-17.2197 -9.60898,-3.938754 -8.99173,15.321334 z M 83.391881,166.88644 50.964356,180.5719 45.83072,164.72925 81.029947,160.07977 Z"
       sodipodi:nodetypes="cccccccccccccccccccccccccccccc"
       inkscape:label="black" />
    <path
       style="fill:#000000;fill-opacity:0.31558;stroke:none;stroke-width:0.259559px;stroke-linecap:butt;stroke-linejoin:miter;stroke-opacity:1"
       d="M 60.584472,117.82364 77.78632,144.15811 59.701032,119.235 Z m -5.036633,7.51407 20.216645,23.02833 -21.109081,-21.3511 z m -4.620222,7.74605 23.749778,19.61471 -24.417749,-17.90222 z m -3.170376,8.29262 26.478738,15.88953 -27.092626,-13.69417 z m -1.747957,8.55111 28.382519,12.1828 -28.626408,-9.98117 z m 29.862012,17.67052 -30.116624,-8.49756 0.227752,2.25245 z m 1.634925,3.89123 -30.198617,-3.15756 0.556411,2.02274 z m 2.593197,4.21341 -30.743745,-0.0946 0.972899,2.14378 z m 3.070725,4.09337 -30.854885,3.13648 1.045916,1.83233 z m 4.318836,3.50374 -31.651574,6.09316 1.33965,1.71386 z m 5.514336,3.0543 -33.294965,8.695 1.471773,1.76025 z m 4.795579,1.68293 -32.439454,13.3432 1.755001,1.56354 z m 4.886216,0.76167 -29.508869,18.64022 1.92864,1.14921 z m 4.99725,-0.0827 -25.994585,22.65296 2.130875,0.8483 z m 4.73061,-0.65987 -19.285037,27.38439 2.57188,0.24843 z m 4.36239,-1.44125 -11.22892,29.94426 2.31146,-0.10718 z m 3.87753,-2.2437 -4.21632,31.1844 1.99217,-1.17257 z m 3.78266,-2.18359 0.7769,30.74992 1.78,-0.8111 z m 10.1368,26.51787 -6.15335,-30.83764 7.7947,30.28047 z m 7.32408,-5.13461 -10.38077,-29.27092 11.89491,28.27792 z m 5.77824,-5.13357 -13.77557,-29.22343 15.07249,27.80634 z m 4.75425,-5.47364 -16.48982,-29.26785 17.68532,27.8673 z m 4.87026,-7.26768 -20.85322,-25.66921 22.55909,24.37686 z m 3.68418,-7.39656 -24.17297,-23.25918 25.03855,21.8217 z m 2.73952,-8.0499 -26.94448,-18.4592 27.64502,16.74961 z m 1.01719,-8.74834 -28.53734,-13.34682 29.01538,11.68359 z m 0.44434,-8.51505 -29.73658,-8.89212 29.47646,7.26836 z m -1.28711,-7.12984 -29.91776,-5.29217 29.83189,3.74311 z m -1.24956,-6.79841 -30.3181,-2.79471 30.06801,1.3311 z m -2.4561,-5.94787 -30.28066,-1.04764 29.88412,-0.20219 z m -2.73771,-6.08743 -30.16732,0.77441 29.96583,-2.02966 z m -4.54184,-5.34539 -28.76011,1.5434 28.21866,-2.67151 z m -3.64828,-4.59908 -27.26581,2.18685 27.30906,-3.34894 z m -4.07007,-5.56989 -25.49345,3.49877 25.02076,-4.84638 z m -5.28431,-4.31208 -21.66189,4.0615 20.97027,-4.88325 z m -4.33245,-3.30488 -18.86738,2.77508 17.4831,-3.62133 z m -5.26998,-3.04794 -14.99981,1.82818 13.6663,-2.41949 z m -5.41244,-2.045677 -9.9742,0.803312 9.03909,-1.400416 z"
       id="path1968"
       sodipodi:nodetypes="cccccccccccccccccccccccccccccccccccccccccccccccccccccccccccccccccccccccccccccccccccccccccccccccccccccccccccccccccccccccccccccccccccccccccccccccccccccccc"
       inkscape:label="tips" />
    <path
       style="color:#000000;display:inline;fill:#ffffff;fill-opacity:1;stroke:none;stroke-width:0.981012;stroke-linecap:round;stroke-linejoin:round;stroke-opacity:1;-inkscape-stroke:none"
       d="m 160.37381,124.6319 c 17.41491,29.14094 6.07053,69.79822 -23.11994,87.12997 -31.64049,18.78645 -69.957412,6.52374 -87.074138,-22.79331 -17.116735,-29.31707 -6.358889,-69.90606 22.958181,-87.02279 13.070384,-8.063173 19.255134,-6.882267 19.255134,-6.882267 l -1.124592,5.293207 c -9.275939,2.77217 -7.041086,2.0525 -15.49423,6.90967 -24.632679,14.1539 -36.257709,51.21607 -20.525143,78.61224 15.732566,27.39616 48.979888,39.48434 79.657808,21.76466 30.67793,-17.71968 36.90874,-56.75512 21.25568,-82.31237 -15.65304,-25.557255 -41.04799,-29.506123 -41.04799,-29.506123 0,0 28.0585,0.02457 45.25923,28.807113 z"
       id="path1420"
       sodipodi:nodetypes="ssscccszzzcs"
       inkscape:label="bone" />
    <path
       style="color:#000000;display:inline;fill:none;fill-opacity:1;stroke:#000000;stroke-width:0.981012;stroke-linecap:round;stroke-linejoin:round;stroke-opacity:1;-inkscape-stroke:none"
       d="m 160.11482,124.78312 c 17.4149,29.14093 6.45129,69.85381 -22.84128,87.01243 -32.19244,18.85729 -68.720416,8.39062 -86.794766,-23.00159 -18.496224,-32.12495 -6.562597,-69.56818 22.754464,-86.68491 13.070394,-8.063175 19.034613,-6.664893 19.034613,-6.664893 l -0.999396,4.912553 c -9.275939,2.77217 -16.246401,6.47988 -23.389953,13.53449 0,0 11.265586,16.58512 14.766937,27.7838 0.719369,2.30082 -0.189508,5.18727 -0.9659,8.64199 -0.249445,1.10995 -0.485214,2.27857 -0.648912,3.50527 -0.136485,1.02276 -0.222869,2.08591 -0.225309,3.18909 -0.0083,3.78504 0.971444,8.04144 4.306404,12.7557 8.001836,11.31131 23.074658,15.1661 35.040068,8.18011 11.96544,-6.986 16.55131,-23.33438 11.2962,-36.15466 -1.62907,-3.97424 -4.11854,-8.89016 -7.14361,-13.9138 -0.35831,-0.59503 9.90985,-2.02535 9.90985,-2.02535 0,0 -11.81896,-1.13864 -12.23134,-1.82709 -3.49519,-5.83516 -6.86531,-11.79719 -8.22707,-17.15114 -0.10766,-0.42332 4.59944,-1.7513 4.59944,-1.7513 0,0 -5.04462,-0.4003 -5.10018,-0.83925 -0.39881,-3.15126 0.0758,-6.027844 1.8595,-8.459783 0,0 27.79951,0.175792 45.00024,28.958333 z"
       id="path1518"
       sodipodi:nodetypes="sssccccsscssssscsscscs"
       inkscape:label="outline" />
  </g>
  <g
     inkscape:groupmode="layer"
     id="layer3"
     inkscape:label="Layer 3"
     style="display:none">
    <text
       xml:space="preserve"
       style="font-style:normal;font-weight:normal;font-size:22.5778px;line-height:1.25;font-family:sans-serif;letter-spacing:0px;word-spacing:0px;fill:#000000;fill-opacity:1;stroke:none;stroke-width:0.264583"
       x="82.565948"
       y="53.437008"
       id="text2061"
       transform="rotate(41.479358)"><tspan
         sodipodi:role="line"
         id="tspan2059"
         style="font-style:normal;font-variant:normal;font-weight:bold;font-stretch:normal;font-size:22.5778px;font-family:FreeMono;-inkscape-font-specification:'FreeMono Bold';stroke-width:0.264583"
         x="82.565948"
         y="53.437008">S</tspan></text>
    <text
       xml:space="preserve"
       style="font-style:normal;font-weight:normal;font-size:22.5778px;line-height:1.25;font-family:sans-serif;letter-spacing:0px;word-spacing:0px;fill:#000000;fill-opacity:1;stroke:none;stroke-width:0.264583"
       x="55.757111"
       y="118.76727"
       id="text2061-3"
       transform="rotate(-5.3807527)"><tspan
         sodipodi:role="line"
         id="tspan2059-6"
         style="font-style:normal;font-variant:normal;font-weight:bold;font-stretch:normal;font-size:22.5778px;font-family:FreeMono;-inkscape-font-specification:'FreeMono Bold';stroke-width:0.264583"
         x="55.757111"
         y="118.76727">n</tspan></text>
    <text
       xml:space="preserve"
       style="font-style:normal;font-weight:normal;font-size:22.5778px;line-height:1.25;font-family:sans-serif;letter-spacing:0px;word-spacing:0px;fill:#000000;fill-opacity:1;stroke:none;stroke-width:0.264583"
       x="55.757111"
       y="118.76727"
       id="text2182"
       transform="rotate(-5.3807527)"><tspan
         sodipodi:role="line"
         id="tspan2180"
         style="font-style:normal;font-variant:normal;font-weight:bold;font-stretch:normal;font-size:22.5778px;font-family:FreeMono;-inkscape-font-specification:'FreeMono Bold';stroke-width:0.264583"
         x="55.757111"
         y="118.76727">n</tspan></text>
    <text
       xml:space="preserve"
       style="font-style:normal;font-weight:normal;font-size:22.5778px;line-height:1.25;font-family:sans-serif;letter-spacing:0px;word-spacing:0px;fill:#000000;fill-opacity:1;stroke:none;stroke-width:0.264583"
       x="-17.345293"
       y="141.14581"
       id="text2061-7"
       transform="rotate(-55.07219)"><tspan
         sodipodi:role="line"
         id="tspan2059-5"
         style="font-style:normal;font-variant:normal;font-weight:bold;font-stretch:normal;font-size:22.5778px;font-family:FreeMono;-inkscape-font-specification:'FreeMono Bold';stroke-width:0.264583"
         x="-17.345293"
         y="141.14581">i</tspan></text>
    <text
       xml:space="preserve"
       style="font-style:normal;font-weight:normal;font-size:22.5778px;line-height:1.25;font-family:sans-serif;letter-spacing:0px;word-spacing:0px;fill:#000000;fill-opacity:1;stroke:none;stroke-width:0.264583"
       x="-17.345293"
       y="141.14581"
       id="text2203"
       transform="rotate(-55.07219)"><tspan
         sodipodi:role="line"
         id="tspan2201"
         style="font-style:normal;font-variant:normal;font-weight:bold;font-stretch:normal;font-size:22.5778px;font-family:FreeMono;-inkscape-font-specification:'FreeMono Bold';stroke-width:0.264583"
         x="-17.345293"
         y="141.14581">i</tspan></text>
    <text
       xml:space="preserve"
       style="font-style:normal;font-weight:normal;font-size:19.7517px;line-height:1.25;font-family:sans-serif;letter-spacing:0px;word-spacing:0px;fill:#000000;fill-opacity:1;stroke:none;stroke-width:0.231465"
       x="-77.428749"
       y="103.10303"
       id="text2061-35"
       transform="rotate(-100.86864)"><tspan
         sodipodi:role="line"
         id="tspan2059-62"
         style="font-style:normal;font-variant:normal;font-weight:bold;font-stretch:normal;font-size:19.7517px;font-family:FreeMono;-inkscape-font-specification:'FreeMono Bold';stroke-width:0.231465"
         x="-77.428749"
         y="103.10303">t</tspan></text>
    <text
       xml:space="preserve"
       style="font-style:normal;font-weight:normal;font-size:18.2705px;line-height:1.25;font-family:sans-serif;letter-spacing:0px;word-spacing:0px;fill:#000000;fill-opacity:1;stroke:none;stroke-width:0.214107"
       x="-93.376656"
       y="48.413486"
       id="text2224"
       transform="rotate(-138.21112)"><tspan
         sodipodi:role="line"
         id="tspan2222"
         style="font-style:normal;font-variant:normal;font-weight:bold;font-stretch:normal;font-size:18.2705px;font-family:FreeMono;-inkscape-font-specification:'FreeMono Bold';stroke-width:0.214107"
         x="-93.376656"
         y="48.413486">c</tspan></text>
    <text
       xml:space="preserve"
       style="font-style:normal;font-weight:normal;font-size:10.8214px;line-height:1.25;font-family:sans-serif;letter-spacing:0px;word-spacing:0px;fill:#000000;fill-opacity:1;stroke:none;stroke-width:0.126813"
       x="-76.754059"
       y="31.991545"
       id="text2228"
       transform="rotate(-151.85542)"><tspan
         sodipodi:role="line"
         id="tspan2226"
         style="font-style:normal;font-variant:normal;font-weight:bold;font-stretch:normal;font-size:10.8214px;font-family:FreeMono;-inkscape-font-specification:'FreeMono Bold';stroke-width:0.126813"
         x="-76.754059"
         y="31.991545">h</tspan></text>
  </g>
</svg>
