<?xml version="1.0" encoding="UTF-8" standalone="no"?>
<!-- Created with Inkscape (http://www.inkscape.org/) -->

<svg
   width="254.508mm"
   height="73.924004mm"
   viewBox="0 0 254.508 73.924"
   version="1.1"
   id="svg2265"
   xml:space="preserve"
   inkscape:version="1.2.2 (1:1.2.2+202305151914+b0a8486541)"
   sodipodi:docname="logo-big.svg"
   inkscape:export-filename="logo-big.png"
   inkscape:export-xdpi="96"
   inkscape:export-ydpi="96"
   xmlns:inkscape="http://www.inkscape.org/namespaces/inkscape"
   xmlns:sodipodi="http://sodipodi.sourceforge.net/DTD/sodipodi-0.dtd"
   xmlns:xlink="http://www.w3.org/1999/xlink"
   xmlns="http://www.w3.org/2000/svg"
   xmlns:svg="http://www.w3.org/2000/svg"><sodipodi:namedview
     id="namedview2267"
     pagecolor="#505050"
     bordercolor="#eeeeee"
     borderopacity="1"
     inkscape:showpageshadow="0"
     inkscape:pageopacity="0"
     inkscape:pagecheckerboard="0"
     inkscape:deskcolor="#4f4f4f"
     inkscape:document-units="mm"
     showgrid="false"
     inkscape:lockguides="true"
     inkscape:zoom="0.79093297"
     inkscape:cx="492.45639"
     inkscape:cy="104.3072"
     inkscape:window-width="1920"
     inkscape:window-height="1143"
     inkscape:window-x="1920"
     inkscape:window-y="0"
     inkscape:window-maximized="1"
     inkscape:current-layer="layer5"
     showguides="true"><sodipodi:guide
       position="206.42803,71.760449"
       orientation="0,-1"
       id="guide4542"
       inkscape:locked="true" /><sodipodi:guide
       position="154.45278,52.528693"
       orientation="0,-1"
       id="guide4724"
       inkscape:locked="true" /><sodipodi:guide
       position="186.67505,43.849823"
       orientation="0,-1"
       id="guide2440"
       inkscape:locked="true" /></sodipodi:namedview><defs
     id="defs2262"><linearGradient
       inkscape:collect="always"
       id="linearGradient4502"><stop
         style="stop-color:#010101;stop-opacity:1;"
         offset="0"
         id="stop4498" /><stop
         style="stop-color:#010101;stop-opacity:0;"
         offset="1"
         id="stop4500" /></linearGradient><linearGradient
       inkscape:collect="always"
       xlink:href="#linearGradient4502"
       id="linearGradient4504"
       x1="133.03844"
       y1="82.558189"
       x2="313.3699"
       y2="82.558189"
       gradientUnits="userSpaceOnUse" /><clipPath
       clipPathUnits="userSpaceOnUse"
       id="clipPath2013"><g
         id="g2029"><g
           aria-label="snitch"
           id="g2027"
           style="font-style:italic;font-weight:bold;font-size:42.3333px;line-height:1.25;font-family:monospace;-inkscape-font-specification:'monospace Bold Italic';letter-spacing:0px;word-spacing:0px;fill:#ffffff;stroke:none"
           transform="matrix(1.2044195,0,0,1.2044195,-63.137261,-20.732513)"><path
             d="m 184.13311,77.604588 -1.03353,5.250321 q -1.55029,-1.095539 -3.34863,-1.653644 -1.79834,-0.558105 -3.7207,-0.558105 -1.94304,0 -3.07992,0.723469 -1.13688,0.72347 -1.13688,1.943033 0,0.930175 0.74414,1.50895 0.76481,0.558105 3.43132,1.322916 l 1.52962,0.434082 q 2.64583,0.76481 3.86539,2.211749 1.21956,1.446939 1.21956,3.803383 0,3.762041 -2.85253,5.911779 -2.83187,2.129069 -7.89616,2.129069 -2.14973,0 -4.29947,-0.37207 -2.12907,-0.351401 -4.17545,-1.07487 l 1.05419,-5.291663 q 1.77767,1.157551 3.74138,1.777668 1.9637,0.599446 3.88606,0.599446 2.27376,0 3.53467,-0.76481 1.28157,-0.785482 1.28157,-2.170409 0,-0.950846 -0.64079,-1.48828 -0.62011,-0.537435 -3.3693,-1.343586 l -1.81901,-0.496094 q -2.52181,-0.74414 -3.70003,-2.170408 -1.17822,-1.446939 -1.17822,-3.762042 0,-3.472653 2.8112,-5.601721 2.81119,-2.149738 7.48274,-2.149738 1.92236,0 3.84472,0.330729 1.92236,0.310059 3.82406,0.950846 z"
             id="path2015"
             style="stroke:none" /><path
             d="m 209.78527,84.983977 -2.91455,15.048163 h -6.05647 l 2.74918,-14.097318 q 0.10335,-0.537434 0.14469,-1.074868 0.062,-0.558106 0.062,-1.116211 0,-1.198892 -0.59945,-1.819009 -0.59945,-0.640787 -1.73633,-0.640787 -1.69498,0 -2.91455,1.48828 -1.19889,1.48828 -1.73632,4.258135 l -2.50114,13.001778 h -6.05647 l 4.48551,-23.151022 h 6.05647 l -0.66146,3.472654 q 0.99219,-1.901691 2.72852,-2.95589 1.73632,-1.074869 3.82405,-1.074869 2.64583,0 4.0721,1.446939 1.42627,1.426269 1.42627,4.05143 0,0.620116 -0.10336,1.405597 -0.0827,0.785482 -0.26871,1.756998 z"
             id="path2017"
             style="stroke:none" /><path
             d="m 218.88031,76.881118 h 11.98893 l -3.59668,18.500149 h 7.52408 l -0.88883,4.650873 H 212.7825 l 0.88883,-4.650873 h 7.54476 l 2.70784,-13.849273 h -5.93245 z m 8.12353,-11.265453 h 6.05648 l -1.38493,7.06933 h -6.05648 z"
             id="path2019"
             style="stroke:none" /><path
             d="m 255.50854,70.307881 -1.28158,6.573237 h 7.91683 l -0.88884,4.650876 h -7.91682 l -2.14974,10.955395 q -0.0827,0.413411 -0.12402,0.72347 -0.0413,0.310058 -0.0413,0.475423 0,0.930175 0.62011,1.322915 0.62012,0.37207 2.25309,0.37207 h 4.65088 l -0.88884,4.650873 h -5.06428 q -4.2168,0 -5.99446,-1.136878 -1.757,-1.157551 -1.757,-3.824053 0,-0.434082 0.0827,-1.136881 0.10335,-0.702799 0.28939,-1.736327 l 2.08773,-10.666007 h -5.93245 l 0.88883,-4.650876 h 5.93245 l 1.2609,-6.573237 z"
             id="path2021"
             style="stroke:none" /><path
             d="m 283.22776,99.267332 q -1.59163,0.682128 -3.28662,1.012858 -1.67432,0.3514 -3.38997,0.3514 -4.67155,0 -7.33805,-2.56315 -2.64583,-2.563149 -2.64583,-7.007319 0,-6.552567 3.78271,-10.645337 3.80338,-4.092771 9.92187,-4.092771 2.02571,0 3.78271,0.434082 1.757,0.413411 3.32796,1.302245 l -1.09554,5.53971 q -1.2609,-1.198893 -2.6665,-1.777668 -1.4056,-0.578776 -3.0179,-0.578776 -3.514,0 -5.72575,2.563149 -2.19108,2.563149 -2.19108,6.65592 0,2.645831 1.26091,3.948076 1.2609,1.302245 3.82405,1.302245 1.44694,0 3.07991,-0.537434 1.65365,-0.537435 3.53467,-1.612304 z"
             id="path2023"
             style="stroke:none" /><path
             d="m 311.73246,84.983977 -2.91455,15.048163 h -6.05647 l 2.74918,-14.097318 q 0.10336,-0.537434 0.1447,-1.074868 0.062,-0.558106 0.062,-1.116211 0,-1.198892 -0.59945,-1.819009 -0.59944,-0.640787 -1.73632,-0.640787 -1.71566,0 -2.91455,1.48828 -1.1989,1.46761 -1.73633,4.258135 l -2.50114,13.001778 h -6.05647 l 6.26318,-32.163385 h 6.01513 l -2.39778,12.485017 q 0.99218,-1.901691 2.72851,-2.95589 1.73633,-1.074869 3.82405,-1.074869 2.64583,0 4.0721,1.446939 1.42627,1.426269 1.42627,4.05143 0,0.620116 -0.10335,1.405597 -0.0827,0.785482 -0.26872,1.756998 z"
             id="path2025"
             style="stroke:none" /></g></g></clipPath><clipPath
       clipPathUnits="userSpaceOnUse"
       id="clipPath1469"><path
         id="path1471"
         style="font-style:italic;font-weight:bold;font-size:50.0944px;line-height:1.25;font-family:monospace;-inkscape-font-specification:'monospace Bold Italic';letter-spacing:-2.64583px;word-spacing:0px;display:inline;fill:#ffffff;fill-opacity:1;stroke-width:0.264583"
         d="m 289.23188,81.678669 -3.44889,17.806993 h -7.16682 l 3.25321,-16.681826 q 0.12229,-0.635965 0.17121,-1.271929 0.0734,-0.660426 0.0734,-1.32085 0,-1.418688 -0.70936,-2.152491 -0.70934,-0.758267 -2.05465,-0.758267 -2.03019,0 -3.44888,1.761133 -1.41869,1.73667 -2.05466,5.038791 l -2.95968,15.385439 h -7.16682 l 7.41143,-38.060003 h 7.1179 l -2.83738,14.773934 q 1.17409,-2.250334 3.22874,-3.497802 2.05466,-1.271929 4.52513,-1.271929 3.1309,0 4.81865,1.712211 1.68775,1.687751 1.68775,4.794192 0,0.733803 -0.12229,1.66329 -0.0978,0.929484 -0.31798,2.079114 z m -31.08472,16.901967 q -1.88343,0.807183 -3.88916,1.198547 -1.98127,0.415817 -4.01147,0.415817 -5.52799,0 -8.68335,-3.033054 -3.1309,-3.033059 -3.1309,-8.291992 0,-7.753871 4.47621,-12.596982 4.50067,-4.84311 11.74087,-4.84311 2.3971,0 4.47621,0.513665 2.07911,0.489201 3.93809,1.540988 l -1.29639,6.555322 q -1.49207,-1.41869 -3.15536,-2.103572 -1.66329,-0.684887 -3.57119,-0.684887 -4.15822,0 -6.77546,3.033061 -2.59278,3.033059 -2.59278,7.87617 0,3.130899 1.49207,4.671891 1.49207,1.540989 4.52513,1.540989 1.71221,0 3.64457,-0.635966 1.95681,-0.635963 4.18268,-1.907892 z m -28.03857,-34.26868 -1.51653,7.778332 h 9.36824 l -1.05178,5.503535 h -9.36824 l -2.54386,12.963882 q -0.0978,0.489201 -0.14676,0.856104 -0.0489,0.366903 -0.0489,0.562584 0,1.100706 0.7338,1.565449 0.73381,0.440283 2.66616,0.440283 h 5.50354 l -1.05179,5.503537 h -5.99274 q -4.98987,0 -7.09344,-1.345311 -2.07912,-1.369766 -2.07912,-4.525126 0,-0.513665 0.0978,-1.345309 0.1223,-0.831646 0.34245,-2.054653 l 2.47047,-12.62144 h -7.02006 l 1.05178,-5.503535 h 7.02007 l 1.49207,-7.778332 z m -35.93507,7.778332 h 14.18689 l -4.25606,21.891837 h 8.90349 l -1.05178,5.503537 h -24.99828 l 1.05179,-5.503537 h 8.92795 l 3.20428,-16.388302 h -7.02006 z m 9.61285,-13.330786 h 7.16682 l -1.63883,8.365372 h -7.16682 z M 186.05689,81.678669 182.608,99.485662 h -7.16682 l 3.2532,-16.681826 q 0.1223,-0.635965 0.17122,-1.271929 0.0734,-0.660426 0.0734,-1.32085 0,-1.418688 -0.70934,-2.152491 -0.70935,-0.758267 -2.05466,-0.758267 -2.00573,0 -3.44888,1.761133 -1.41869,1.76113 -2.05465,5.038791 l -2.95968,15.385439 h -7.16683 l 5.30786,-27.395374 h 7.16682 l -0.78272,4.109305 q 1.17409,-2.250334 3.22874,-3.497802 2.05465,-1.271929 4.52513,-1.271929 3.1309,0 4.81865,1.712211 1.68775,1.687751 1.68775,4.794192 0,0.733803 -0.1223,1.66329 -0.0978,0.929484 -0.31798,2.079114 z m -27.70923,-8.732276 -1.22301,6.212879 q -1.83451,-1.296389 -3.96254,-1.956813 -2.12803,-0.660424 -4.40283,-0.660424 -2.29925,0 -3.64456,0.856105 -1.34531,0.856107 -1.34531,2.299255 0,1.100706 0.88057,1.785591 0.90502,0.660424 4.06038,1.56545 l 1.81005,0.513664 q 3.1309,0.905026 4.57405,2.617235 1.44315,1.712211 1.44315,4.500671 0,4.451747 -3.3755,6.995602 -3.35104,2.519392 -9.34378,2.519392 -2.54386,0 -5.08771,-0.440278 -2.5194,-0.415822 -4.94095,-1.271929 l 1.24746,-6.261798 q 2.10358,1.369769 4.42729,2.103572 2.32372,0.709345 4.59851,0.709345 2.69062,0 4.18269,-0.905025 1.51653,-0.929487 1.51653,-2.568316 0,-1.125167 -0.75827,-1.761133 -0.7338,-0.635963 -3.987,-1.58991 l -2.1525,-0.587042 q -2.98414,-0.880565 -4.37836,-2.568318 -1.39423,-1.712209 -1.39423,-4.451747 0,-4.109307 3.32658,-6.628702 3.32658,-2.543857 8.85457,-2.543857 2.2748,0 4.54959,0.391364 2.2748,0.3669 4.52513,1.125167 z" /></clipPath><clipPath
       clipPathUnits="userSpaceOnUse"
       id="clipPath1473"><path
         id="path1475"
         style="font-style:italic;font-weight:bold;font-size:50.0944px;line-height:1.25;font-family:monospace;-inkscape-font-specification:'monospace Bold Italic';letter-spacing:-2.64583px;word-spacing:0px;display:inline;fill:#ffffff;fill-opacity:1;stroke-width:0.264583"
         d="m 289.23188,81.678669 -3.44889,17.806993 h -7.16682 l 3.25321,-16.681826 q 0.12229,-0.635965 0.17121,-1.271929 0.0734,-0.660426 0.0734,-1.32085 0,-1.418688 -0.70936,-2.152491 -0.70934,-0.758267 -2.05465,-0.758267 -2.03019,0 -3.44888,1.761133 -1.41869,1.73667 -2.05466,5.038791 l -2.95968,15.385439 h -7.16682 l 7.41143,-38.060003 h 7.1179 l -2.83738,14.773934 q 1.17409,-2.250334 3.22874,-3.497802 2.05466,-1.271929 4.52513,-1.271929 3.1309,0 4.81865,1.712211 1.68775,1.687751 1.68775,4.794192 0,0.733803 -0.12229,1.66329 -0.0978,0.929484 -0.31798,2.079114 z m -31.08472,16.901967 q -1.88343,0.807183 -3.88916,1.198547 -1.98127,0.415817 -4.01147,0.415817 -5.52799,0 -8.68335,-3.033054 -3.1309,-3.033059 -3.1309,-8.291992 0,-7.753871 4.47621,-12.596982 4.50067,-4.84311 11.74087,-4.84311 2.3971,0 4.47621,0.513665 2.07911,0.489201 3.93809,1.540988 l -1.29639,6.555322 q -1.49207,-1.41869 -3.15536,-2.103572 -1.66329,-0.684887 -3.57119,-0.684887 -4.15822,0 -6.77546,3.033061 -2.59278,3.033059 -2.59278,7.87617 0,3.130899 1.49207,4.671891 1.49207,1.540989 4.52513,1.540989 1.71221,0 3.64457,-0.635966 1.95681,-0.635963 4.18268,-1.907892 z m -28.03857,-34.26868 -1.51653,7.778332 h 9.36824 l -1.05178,5.503535 h -9.36824 l -2.54386,12.963882 q -0.0978,0.489201 -0.14676,0.856104 -0.0489,0.366903 -0.0489,0.562584 0,1.100706 0.7338,1.565449 0.73381,0.440283 2.66616,0.440283 h 5.50354 l -1.05179,5.503537 h -5.99274 q -4.98987,0 -7.09344,-1.345311 -2.07912,-1.369766 -2.07912,-4.525126 0,-0.513665 0.0978,-1.345309 0.1223,-0.831646 0.34245,-2.054653 l 2.47047,-12.62144 h -7.02006 l 1.05178,-5.503535 h 7.02007 l 1.49207,-7.778332 z m -35.93507,7.778332 h 14.18689 l -4.25606,21.891837 h 8.90349 l -1.05178,5.503537 h -24.99828 l 1.05179,-5.503537 h 8.92795 l 3.20428,-16.388302 h -7.02006 z m 9.61285,-13.330786 h 7.16682 l -1.63883,8.365372 h -7.16682 z M 186.05689,81.678669 182.608,99.485662 h -7.16682 l 3.2532,-16.681826 q 0.1223,-0.635965 0.17122,-1.271929 0.0734,-0.660426 0.0734,-1.32085 0,-1.418688 -0.70934,-2.152491 -0.70935,-0.758267 -2.05466,-0.758267 -2.00573,0 -3.44888,1.761133 -1.41869,1.76113 -2.05465,5.038791 l -2.95968,15.385439 h -7.16683 l 5.30786,-27.395374 h 7.16682 l -0.78272,4.109305 q 1.17409,-2.250334 3.22874,-3.497802 2.05465,-1.271929 4.52513,-1.271929 3.1309,0 4.81865,1.712211 1.68775,1.687751 1.68775,4.794192 0,0.733803 -0.1223,1.66329 -0.0978,0.929484 -0.31798,2.079114 z m -27.70923,-8.732276 -1.22301,6.212879 q -1.83451,-1.296389 -3.96254,-1.956813 -2.12803,-0.660424 -4.40283,-0.660424 -2.29925,0 -3.64456,0.856105 -1.34531,0.856107 -1.34531,2.299255 0,1.100706 0.88057,1.785591 0.90502,0.660424 4.06038,1.56545 l 1.81005,0.513664 q 3.1309,0.905026 4.57405,2.617235 1.44315,1.712211 1.44315,4.500671 0,4.451747 -3.3755,6.995602 -3.35104,2.519392 -9.34378,2.519392 -2.54386,0 -5.08771,-0.440278 -2.5194,-0.415822 -4.94095,-1.271929 l 1.24746,-6.261798 q 2.10358,1.369769 4.42729,2.103572 2.32372,0.709345 4.59851,0.709345 2.69062,0 4.18269,-0.905025 1.51653,-0.929487 1.51653,-2.568316 0,-1.125167 -0.75827,-1.761133 -0.7338,-0.635963 -3.987,-1.58991 l -2.1525,-0.587042 q -2.98414,-0.880565 -4.37836,-2.568318 -1.39423,-1.712209 -1.39423,-4.451747 0,-4.109307 3.32658,-6.628702 3.32658,-2.543857 8.85457,-2.543857 2.2748,0 4.54959,0.391364 2.2748,0.3669 4.52513,1.125167 z" /></clipPath><clipPath
       clipPathUnits="userSpaceOnUse"
       id="clipPath1477"><path
         id="path1479"
         style="font-style:italic;font-weight:bold;font-size:50.0944px;line-height:1.25;font-family:monospace;-inkscape-font-specification:'monospace Bold Italic';letter-spacing:-2.64583px;word-spacing:0px;display:inline;fill:#ffffff;fill-opacity:1;stroke-width:0.264583"
         d="m 289.23188,81.678669 -3.44889,17.806993 h -7.16682 l 3.25321,-16.681826 q 0.12229,-0.635965 0.17121,-1.271929 0.0734,-0.660426 0.0734,-1.32085 0,-1.418688 -0.70936,-2.152491 -0.70934,-0.758267 -2.05465,-0.758267 -2.03019,0 -3.44888,1.761133 -1.41869,1.73667 -2.05466,5.038791 l -2.95968,15.385439 h -7.16682 l 7.41143,-38.060003 h 7.1179 l -2.83738,14.773934 q 1.17409,-2.250334 3.22874,-3.497802 2.05466,-1.271929 4.52513,-1.271929 3.1309,0 4.81865,1.712211 1.68775,1.687751 1.68775,4.794192 0,0.733803 -0.12229,1.66329 -0.0978,0.929484 -0.31798,2.079114 z m -31.08472,16.901967 q -1.88343,0.807183 -3.88916,1.198547 -1.98127,0.415817 -4.01147,0.415817 -5.52799,0 -8.68335,-3.033054 -3.1309,-3.033059 -3.1309,-8.291992 0,-7.753871 4.47621,-12.596982 4.50067,-4.84311 11.74087,-4.84311 2.3971,0 4.47621,0.513665 2.07911,0.489201 3.93809,1.540988 l -1.29639,6.555322 q -1.49207,-1.41869 -3.15536,-2.103572 -1.66329,-0.684887 -3.57119,-0.684887 -4.15822,0 -6.77546,3.033061 -2.59278,3.033059 -2.59278,7.87617 0,3.130899 1.49207,4.671891 1.49207,1.540989 4.52513,1.540989 1.71221,0 3.64457,-0.635966 1.95681,-0.635963 4.18268,-1.907892 z m -28.03857,-34.26868 -1.51653,7.778332 h 9.36824 l -1.05178,5.503535 h -9.36824 l -2.54386,12.963882 q -0.0978,0.489201 -0.14676,0.856104 -0.0489,0.366903 -0.0489,0.562584 0,1.100706 0.7338,1.565449 0.73381,0.440283 2.66616,0.440283 h 5.50354 l -1.05179,5.503537 h -5.99274 q -4.98987,0 -7.09344,-1.345311 -2.07912,-1.369766 -2.07912,-4.525126 0,-0.513665 0.0978,-1.345309 0.1223,-0.831646 0.34245,-2.054653 l 2.47047,-12.62144 h -7.02006 l 1.05178,-5.503535 h 7.02007 l 1.49207,-7.778332 z m -35.93507,7.778332 h 14.18689 l -4.25606,21.891837 h 8.90349 l -1.05178,5.503537 h -24.99828 l 1.05179,-5.503537 h 8.92795 l 3.20428,-16.388302 h -7.02006 z m 9.61285,-13.330786 h 7.16682 l -1.63883,8.365372 h -7.16682 z M 186.05689,81.678669 182.608,99.485662 h -7.16682 l 3.2532,-16.681826 q 0.1223,-0.635965 0.17122,-1.271929 0.0734,-0.660426 0.0734,-1.32085 0,-1.418688 -0.70934,-2.152491 -0.70935,-0.758267 -2.05466,-0.758267 -2.00573,0 -3.44888,1.761133 -1.41869,1.76113 -2.05465,5.038791 l -2.95968,15.385439 h -7.16683 l 5.30786,-27.395374 h 7.16682 l -0.78272,4.109305 q 1.17409,-2.250334 3.22874,-3.497802 2.05465,-1.271929 4.52513,-1.271929 3.1309,0 4.81865,1.712211 1.68775,1.687751 1.68775,4.794192 0,0.733803 -0.1223,1.66329 -0.0978,0.929484 -0.31798,2.079114 z m -27.70923,-8.732276 -1.22301,6.212879 q -1.83451,-1.296389 -3.96254,-1.956813 -2.12803,-0.660424 -4.40283,-0.660424 -2.29925,0 -3.64456,0.856105 -1.34531,0.856107 -1.34531,2.299255 0,1.100706 0.88057,1.785591 0.90502,0.660424 4.06038,1.56545 l 1.81005,0.513664 q 3.1309,0.905026 4.57405,2.617235 1.44315,1.712211 1.44315,4.500671 0,4.451747 -3.3755,6.995602 -3.35104,2.519392 -9.34378,2.519392 -2.54386,0 -5.08771,-0.440278 -2.5194,-0.415822 -4.94095,-1.271929 l 1.24746,-6.261798 q 2.10358,1.369769 4.42729,2.103572 2.32372,0.709345 4.59851,0.709345 2.69062,0 4.18269,-0.905025 1.51653,-0.929487 1.51653,-2.568316 0,-1.125167 -0.75827,-1.761133 -0.7338,-0.635963 -3.987,-1.58991 l -2.1525,-0.587042 q -2.98414,-0.880565 -4.37836,-2.568318 -1.39423,-1.712209 -1.39423,-4.451747 0,-4.109307 3.32658,-6.628702 3.32658,-2.543857 8.85457,-2.543857 2.2748,0 4.54959,0.391364 2.2748,0.3669 4.52513,1.125167 z" /></clipPath><clipPath
       clipPathUnits="userSpaceOnUse"
       id="clipPath1481"><path
         id="path1483"
         style="font-style:italic;font-weight:bold;font-size:50.0944px;line-height:1.25;font-family:monospace;-inkscape-font-specification:'monospace Bold Italic';letter-spacing:-2.64583px;word-spacing:0px;display:inline;fill:#ffffff;fill-opacity:1;stroke-width:0.264583"
         d="m 289.23188,81.678669 -3.44889,17.806993 h -7.16682 l 3.25321,-16.681826 q 0.12229,-0.635965 0.17121,-1.271929 0.0734,-0.660426 0.0734,-1.32085 0,-1.418688 -0.70936,-2.152491 -0.70934,-0.758267 -2.05465,-0.758267 -2.03019,0 -3.44888,1.761133 -1.41869,1.73667 -2.05466,5.038791 l -2.95968,15.385439 h -7.16682 l 7.41143,-38.060003 h 7.1179 l -2.83738,14.773934 q 1.17409,-2.250334 3.22874,-3.497802 2.05466,-1.271929 4.52513,-1.271929 3.1309,0 4.81865,1.712211 1.68775,1.687751 1.68775,4.794192 0,0.733803 -0.12229,1.66329 -0.0978,0.929484 -0.31798,2.079114 z m -31.08472,16.901967 q -1.88343,0.807183 -3.88916,1.198547 -1.98127,0.415817 -4.01147,0.415817 -5.52799,0 -8.68335,-3.033054 -3.1309,-3.033059 -3.1309,-8.291992 0,-7.753871 4.47621,-12.596982 4.50067,-4.84311 11.74087,-4.84311 2.3971,0 4.47621,0.513665 2.07911,0.489201 3.93809,1.540988 l -1.29639,6.555322 q -1.49207,-1.41869 -3.15536,-2.103572 -1.66329,-0.684887 -3.57119,-0.684887 -4.15822,0 -6.77546,3.033061 -2.59278,3.033059 -2.59278,7.87617 0,3.130899 1.49207,4.671891 1.49207,1.540989 4.52513,1.540989 1.71221,0 3.64457,-0.635966 1.95681,-0.635963 4.18268,-1.907892 z m -28.03857,-34.26868 -1.51653,7.778332 h 9.36824 l -1.05178,5.503535 h -9.36824 l -2.54386,12.963882 q -0.0978,0.489201 -0.14676,0.856104 -0.0489,0.366903 -0.0489,0.562584 0,1.100706 0.7338,1.565449 0.73381,0.440283 2.66616,0.440283 h 5.50354 l -1.05179,5.503537 h -5.99274 q -4.98987,0 -7.09344,-1.345311 -2.07912,-1.369766 -2.07912,-4.525126 0,-0.513665 0.0978,-1.345309 0.1223,-0.831646 0.34245,-2.054653 l 2.47047,-12.62144 h -7.02006 l 1.05178,-5.503535 h 7.02007 l 1.49207,-7.778332 z m -35.93507,7.778332 h 14.18689 l -4.25606,21.891837 h 8.90349 l -1.05178,5.503537 h -24.99828 l 1.05179,-5.503537 h 8.92795 l 3.20428,-16.388302 h -7.02006 z m 9.61285,-13.330786 h 7.16682 l -1.63883,8.365372 h -7.16682 z M 186.05689,81.678669 182.608,99.485662 h -7.16682 l 3.2532,-16.681826 q 0.1223,-0.635965 0.17122,-1.271929 0.0734,-0.660426 0.0734,-1.32085 0,-1.418688 -0.70934,-2.152491 -0.70935,-0.758267 -2.05466,-0.758267 -2.00573,0 -3.44888,1.761133 -1.41869,1.76113 -2.05465,5.038791 l -2.95968,15.385439 h -7.16683 l 5.30786,-27.395374 h 7.16682 l -0.78272,4.109305 q 1.17409,-2.250334 3.22874,-3.497802 2.05465,-1.271929 4.52513,-1.271929 3.1309,0 4.81865,1.712211 1.68775,1.687751 1.68775,4.794192 0,0.733803 -0.1223,1.66329 -0.0978,0.929484 -0.31798,2.079114 z m -27.70923,-8.732276 -1.22301,6.212879 q -1.83451,-1.296389 -3.96254,-1.956813 -2.12803,-0.660424 -4.40283,-0.660424 -2.29925,0 -3.64456,0.856105 -1.34531,0.856107 -1.34531,2.299255 0,1.100706 0.88057,1.785591 0.90502,0.660424 4.06038,1.56545 l 1.81005,0.513664 q 3.1309,0.905026 4.57405,2.617235 1.44315,1.712211 1.44315,4.500671 0,4.451747 -3.3755,6.995602 -3.35104,2.519392 -9.34378,2.519392 -2.54386,0 -5.08771,-0.440278 -2.5194,-0.415822 -4.94095,-1.271929 l 1.24746,-6.261798 q 2.10358,1.369769 4.42729,2.103572 2.32372,0.709345 4.59851,0.709345 2.69062,0 4.18269,-0.905025 1.51653,-0.929487 1.51653,-2.568316 0,-1.125167 -0.75827,-1.761133 -0.7338,-0.635963 -3.987,-1.58991 l -2.1525,-0.587042 q -2.98414,-0.880565 -4.37836,-2.568318 -1.39423,-1.712209 -1.39423,-4.451747 0,-4.109307 3.32658,-6.628702 3.32658,-2.543857 8.85457,-2.543857 2.2748,0 4.54959,0.391364 2.2748,0.3669 4.52513,1.125167 z" /></clipPath></defs><g
     inkscape:groupmode="layer"
     id="layer4"
     inkscape:label="Layer 2"
     transform="translate(-17.089987,-32.321503)"><g
       id="g1412"
       transform="matrix(0.43876885,0,0,0.43876885,-3.4446488,57.111389)"><path
         style="color:#000000;display:inline;fill:#545454;fill-opacity:1;stroke:none;stroke-linecap:round;stroke-linejoin:round;stroke-opacity:1;-inkscape-stroke:none"
         d="m 196.35654,-5.31983 c 17.75198,29.70498 7.22027,68.81078 -22.66425,86.25881 -29.88451,17.44803 -68.81077,7.22027 -86.258811,-22.66424 -17.44803,-29.88452 -7.22027,-68.81078 22.664241,-86.25881 13.32338,-8.219251 18.66217,-6.679096 18.66217,-6.679096 l -1.05907,3.554816 c -9.45548,2.82583 -16.56086,6.6053 -23.84268,13.79646 0,0 12.55771,18.63704 15.32844,29.30802 1.39638,5.37791 -7.03918,14.53473 2.23834,27.64934 8.15672,11.53025 23.52129,15.45965 35.7183,8.33844 12.19703,-7.12122 17.18316,-23.91809 11.51484,-36.85445 -1.38745,-4.30654 -4.1415,-8.9452 -7.34234,-14.2521 -0.24973,-0.41404 8.06639,-1.94752 8.06639,-1.94752 0,0 -9.96556,-1.11765 -10.22416,-1.54736 -3.83662,-6.37526 -7.41374,-12.45359 -8.68534,-18.13614 -0.0534,-0.23877 4.22453,-1.36856 4.22453,-1.36856 0,0 -4.6309,-0.47555 -4.66565,-0.69978 -0.53342,-3.44155 0.008,-6.220687 1.97702,-8.906 0,0 26.81437,1.068518 44.34803,30.40817 z"
         id="path1109-8"
         sodipodi:nodetypes="sssccccssscscsscscs"
         inkscape:label="gray" /><path
         id="path1485-7"
         style="display:inline;fill:#4989d6;fill-opacity:1;stroke:none;stroke-width:0.264583px;stroke-linecap:butt;stroke-linejoin:miter;stroke-opacity:1"
         d="m 170.96175,80.44661 c -11.12974,4.49486 -30.10636,8.86937 -40.89816,7.01499 l 9.34917,-36.34162 c 4.27643,0.76516 10.09488,-0.16305 15.03431,-1.62097 z M 115.7854,81.86369 C 100.38473,71.97059 89.547589,61.19914 86.713769,48.88736 L 119.70326,36.72884 c 2.74824,3.66259 4.211,7.1553 11.32135,11.39453 z m 45.49933,-37.12772 22.67174,26.7819 c 10.25431,-9.195 16.56225,-20.53937 18.45443,-31.03008 l -32.82677,-8.01534 c -1.36746,4.00453 -4.42106,9.08355 -8.2994,12.26352 z m 9.32906,-19.28838 32.49709,3.63126 C 203.88771,17.02469 201.34413,5.88149 194.34965,-5.84513 L 165.69062,4.25369 c 3.52264,6.18284 6.18631,12.76823 4.92317,21.1939 z m -4.96104,-21.24235 22.89162,-18.07792 c -4.43558,-6.71721 -11.88337,-11.13406 -19.35339,-15.83144 l -13.13161,17.85813 2.96748,4.96506 10.84422,2.04745 -8.48252,1.90405 z m -9.61216,-15.97952 7.57669,-20.662622 -11.20445,-3.435145 c -2.40429,0.981184 -2.90364,4.460447 -2.12214,8.531157 0.12055,0.62793 4.83567,1.33531 4.83567,1.33531 0,0 -4.26051,1.26569 -4.1232,1.73631 1.08913,3.73303 3.01838,7.7952 5.03743,12.49499 z"
         sodipodi:nodetypes="cccccccccccccccccccccccccccccccscsc"
         inkscape:label="blue" /><path
         style="display:inline;fill:#ffffff;fill-opacity:0.194316;stroke:none;stroke-width:0.264583px;stroke-linecap:butt;stroke-linejoin:miter;stroke-opacity:1"
         d="M 119.74269,36.1131 87.073639,49.96601 92.938499,62.94669 123.57968,42.2541 Z m 19.56534,14.8737 -8.46286,35.65973 13.97932,0.93363 0.31508,-35.66153 z m 22.19358,-6.25813 22.74925,26.72816 7.80526,-9.34744 -26.93237,-21.45892 z m 9.42695,-20.01979 32.21897,1.92243 -0.5608,-12.45755 -31.61347,5.56462 z m -5.36724,-20.89343 21.39364,-19.65354 -5.57393,-5.3679 -13.80895,15.2849 3.12648,0.99569 -4.72907,0.7782 -3.26273,3.61146 z m -11.89365,-20.15337 9.4449,-16.261087 -4.39336,-1.52986 -7.34712,12.842927 z"
         id="path1555-9"
         inkscape:label="white"
         sodipodi:nodetypes="ccccccccccccccccccccccccccccccccc" /><path
         id="path1520-2"
         style="display:inline;fill:#191919;fill-opacity:1;stroke:none;stroke-width:0.264583px;stroke-linecap:butt;stroke-linejoin:miter;stroke-opacity:1"
         d="m 169.91379,81.33491 -15.77903,-31.82351 7.60544,-5.02745 22.82981,26.66393 z m -38.91482,6.15144 -16.24105,-6.14954 15.76695,-33.09879 9.17062,3.05258 z m 38.45772,-54.45332 32.79943,8.38094 1.49821,-15.48098 -33.00131,-1.02786 z m -1.47433,-23.36044 26.69106,-15.28815 -8.05438,-10.47565 -21.72001,19.1671 z m -11.67785,-20.92149 16.12152,-17.55299 -9.79497,-4.015004 -9.16577,15.617894 z m -36.63272,47.95801 -33.055181,13.95035 -5.233,-16.1493 35.880531,-4.73947 z"
         sodipodi:nodetypes="cccccccccccccccccccccccccccccc"
         inkscape:label="black" /><path
         style="fill:#000000;fill-opacity:0.31558;stroke:none;stroke-width:0.264583px;stroke-linecap:butt;stroke-linejoin:miter;stroke-opacity:1"
         d="M 96.422929,-13.30334 113.95773,13.54086 95.522389,-11.86466 Z M 91.288809,-5.64383 111.89676,17.83023 90.379099,-3.93413 Z M 86.579159,2.25215 110.78863,22.24652 85.898259,3.99779 Z M 83.347419,10.70528 110.33867,26.90236 82.721649,12.94314 Z M 81.565629,19.4219 110.49751,31.84051 81.317019,21.66615 Z m 30.440011,18.01255 -30.699551,-8.66204 0.23216,2.29605 z m 1.66657,3.96655 -30.783131,-3.21868 0.56718,2.06189 z m 2.64339,4.29496 -31.338811,-0.0964 0.99173,2.18527 z m 3.13016,4.1726 -31.452101,3.19719 1.06616,1.86779 z m 4.40243,3.57156 -32.264211,6.21109 1.36558,1.74704 z m 5.62107,3.11341 -33.939411,8.8633 1.50026,1.79432 z m 4.8884,1.71551 -33.06734,13.60146 1.78897,1.59381 z m 4.9808,0.77641 -30.08004,19.00101 1.96597,1.17146 z m 5.09397,-0.0843 -26.49773,23.09142 2.17212,0.86472 z m 4.82218,-0.67264 -19.65832,27.91443 2.62166,0.25324 z m 4.44682,-1.46915 -11.44626,30.52385 2.3562,-0.10925 z m 3.95258,-2.28713 -4.29793,31.788 2.03073,-1.19527 z m 3.85588,-2.22585 0.79194,31.3451 1.81445,-0.8268 z m 10.333,27.03114 -6.27245,-31.43452 7.94557,30.86656 z m 7.46585,-5.234 -10.5817,-29.83747 12.12514,28.82525 z m 5.89008,-5.23293 -14.04221,-29.78907 15.36423,28.34455 z m 4.84627,-5.57958 -16.80899,-29.83435 18.02763,28.40669 z m 4.96453,-7.40835 -21.25685,-26.16606 22.99573,24.84869 z m 3.75549,-7.53973 -24.64086,-23.70938 25.52319,22.24408 z m 2.79254,-8.20571 -27.46601,-18.81649 28.18011,17.07381 z m 1.03688,-8.91767 -29.0897,-13.60516 29.57699,11.90974 z m 0.45294,-8.67986 -30.31215,-9.06424 30.047,7.40905 z m -1.31202,-7.26785 -30.49684,-5.3946 30.4093,3.81556 z M 200.4617,8.34185 169.55678,5.49304 200.20677,6.84991 Z m -2.50364,-6.063 -30.86676,-1.06792 30.46255,-0.2061 z m -2.7907,-6.20525 -30.75123,0.78939 30.54584,-2.06894 z m -4.62975,-5.44886 -29.31678,1.57328 28.76485,-2.72322 z m -3.71889,-4.6881 -27.79356,2.22918 27.83764,-3.41376 z m -4.14885,-5.6777 -25.98689,3.5665 25.50505,-4.94019 z m -5.38659,-4.39554 -22.08117,4.14011 21.37616,-4.97776 z m -4.41631,-3.36885 -19.23257,2.8288 17.8215,-3.69143 z m -5.37198,-3.10693 -15.29014,1.86356 13.93081,-2.46632 z m -5.51721,-2.085283 -10.16725,0.81886 9.21405,-1.427522 z"
         id="path1968-0"
         sodipodi:nodetypes="cccccccccccccccccccccccccccccccccccccccccccccccccccccccccccccccccccccccccccccccccccccccccccccccccccccccccccccccccccccccccccccccccccccccccccccccccccccccc"
         inkscape:label="tips" /><path
         style="color:#000000;display:inline;fill:#ffffff;fill-opacity:1;stroke:none;stroke-linecap:round;stroke-linejoin:round;stroke-opacity:1;-inkscape-stroke:none"
         d="m 198.14376,-6.3633 c 17.75198,29.70498 6.18803,71.14921 -23.56744,88.81643 -32.25291,19.15007 -71.31149,6.65001 -88.759521,-23.23449 -17.44804,-29.88452 -6.48197,-71.25914 23.402551,-88.70717 13.32337,-8.219252 19.62783,-7.015489 19.62783,-7.015489 l -1.14636,5.395669 c -9.45548,2.82583 -7.17737,2.09223 -15.79413,7.04341 C 86.797229,-9.63708 74.947189,28.14245 90.984269,56.06889 107.02135,83.99532 140.9122,96.31748 172.18391,78.25482 203.45563,60.19216 209.80704,20.40117 193.85101,-5.65076 177.89499,-31.702699 152.00851,-35.728 152.00851,-35.728 c 0,0 28.60159,0.02505 46.13525,29.3647 z"
         id="path1420-2"
         sodipodi:nodetypes="ssscccszzzcs"
         inkscape:label="bone" /><path
         style="color:#000000;display:inline;fill:none;fill-opacity:1;stroke:#000000;stroke-linecap:round;stroke-linejoin:round;stroke-opacity:1;-inkscape-stroke:none"
         d="m 197.87975,-6.20915 c 17.75198,29.70497 6.57616,71.20587 -23.28338,88.69661 -32.81555,19.22228 -70.05055,8.55303 -88.474741,-23.4468 -18.85423,-32.74675 -6.68962,-70.91472 23.194891,-88.36275 13.32338,-8.219253 19.40304,-6.793907 19.40304,-6.793907 l -1.01874,5.007647 c -9.45548,2.82583 -16.56086,6.6053 -23.84268,13.79646 0,0 11.48364,16.90614 15.05276,28.32157 0.73329,2.34536 -0.19318,5.28768 -0.9846,8.80926 -0.25427,1.13144 -0.4946,2.32268 -0.66147,3.57312 -0.13912,1.04256 -0.22718,2.12628 -0.22967,3.25082 -0.008,3.8583 0.99025,8.19708 4.38976,13.00259 8.15671,11.53025 23.52129,15.45965 35.7183,8.33844 12.19703,-7.12122 16.87167,-23.78603 11.51484,-36.85445 -1.6606,-4.05117 -4.19826,-9.06224 -7.28188,-14.18311 -0.36524,-0.60655 10.10166,-2.06455 10.10166,-2.06455 0,0 -12.04772,-1.16068 -12.46808,-1.86246 -3.56284,-5.9481 -6.9982,-12.02553 -8.38631,-17.48311 -0.10975,-0.43151 4.68846,-1.7852 4.68846,-1.7852 0,0 -5.14226,-0.40805 -5.19889,-0.85549 -0.40653,-3.21226 0.0773,-6.144529 1.89549,-8.62354 0,0 28.33758,0.179195 45.87124,29.51885 z"
         id="path1518-3"
         sodipodi:nodetypes="sssccccsscssssscsscscs"
         inkscape:label="outline" /></g></g><g
     inkscape:groupmode="layer"
     id="layer5"
     inkscape:label="Layer 3"
     transform="translate(-17.089987,-32.321503)"><path
       style="fill:#4989d6;stroke-width:1.20442;stroke-linecap:round;stroke-linejoin:round;stop-color:#000000"
       d="M 129.99367,58.212708 H 315.84126 V 94.075241 H 129.99367 Z"
       id="rect2891"
       clip-path="url(#clipPath1481)"
       transform="translate(-30.948216,-16.267185)" /><rect
       style="fill:#ffffff;fill-opacity:0.196078;stroke:none;stroke-width:1.20442;stroke-linecap:round;stroke-linejoin:round;stroke-dasharray:none;stroke-opacity:1;stop-color:#000000"
       id="rect4224"
       width="186.03612"
       height="11.263248"
       x="129.99367"
       y="83.149284"
       clip-path="url(#clipPath1477)"
       transform="translate(-30.948216,-16.267185)" /><rect
       style="fill:#191919;fill-opacity:1;stroke:none;stroke-width:1.20442;stroke-linecap:round;stroke-linejoin:round;stroke-dasharray:none;stroke-opacity:1;stop-color:#000000"
       id="rect3825"
       width="186.05867"
       height="5.8412695"
       x="129.99367"
       y="88.555199"
       clip-path="url(#clipPath1473)"
       transform="translate(-30.948216,-16.267185)" /><rect
       style="fill:#ffffff;fill-opacity:1;stroke:none;stroke-width:1.20442;stroke-linecap:round;stroke-linejoin:round;stroke-dasharray:none;stroke-opacity:1;stop-color:#000000"
       id="rect2355"
       width="186.05867"
       height="6.8953867"
       x="129.99367"
       y="94.394989"
       clip-path="url(#clipPath1469)"
       transform="translate(-30.948216,-16.267185)" /><g
       aria-label="snitch"
       id="text4473"
       clip-path="none"
       style="font-style:italic;font-weight:bold;font-size:50.9871px;font-family:monospace;-inkscape-font-specification:'monospace Bold Italic';letter-spacing:0px;word-spacing:0px;display:none;fill:none;stroke:#010101;stroke-width:0.5"><path
         style="color:#000000;-inkscape-font-specification:'monospace Bold Italic';fill:#010101;stroke:none;-inkscape-stroke:none"
         d="m 149.40039,70.943359 c -3.78934,0 -6.85374,0.873911 -9.16406,2.640625 -2.30855,1.748919 -3.48438,4.090027 -3.48438,6.945313 0,1.901314 0.48734,3.475062 1.47461,4.6875 v 0.002 h 0.002 c 0.98822,1.196278 2.5218,2.088529 4.57812,2.695312 h 0.002 l 2.18946,0.597657 c 1.09896,0.322252 1.98164,0.615739 2.64648,0.880859 0.66484,0.26512 1.11511,0.509399 1.31836,0.685547 v 0.002 h 0.002 c 0.4589,0.384882 0.6836,0.894244 0.6836,1.601563 0,1.034908 -0.45256,1.803899 -1.42578,2.40039 -0.95541,0.578994 -2.32821,0.884766 -4.125,0.884766 -1.51695,0 -3.05118,-0.236659 -4.60547,-0.710938 h -0.002 c -1.55419,-0.490968 -3.03466,-1.194035 -4.44336,-2.111328 l -0.30859,-0.201172 -1.38476,6.947266 0.20312,0.07227 c 1.65683,0.585748 3.34824,1.022094 5.07227,1.306641 l -0.002,-0.002 c 1.73993,0.30114 3.48016,0.45312 5.22071,0.45312 4.10138,0 7.32911,-0.862692 9.66015,-2.615233 2.34642,-1.76831 3.53711,-4.236409 3.53711,-7.320313 0,-1.935226 -0.50695,-3.529236 -1.5293,-4.742187 -1.02266,-1.213339 -2.62231,-2.119253 -4.77734,-2.742188 l -1.8418,-0.523437 h -0.002 c -2.12799,-0.610481 -3.50167,-1.154376 -4.04883,-1.552735 -0.54463,-0.424523 -0.79687,-0.937959 -0.79687,-1.617187 0,-0.90156 0.39277,-1.582159 1.25195,-2.128906 0.85843,-0.546274 2.04705,-0.832032 3.57617,-0.832032 1.51936,0 2.98832,0.219503 4.40821,0.660157 1.41916,0.44043 2.73896,1.092117 3.96289,1.957031 l 0.31445,0.222656 1.36133,-6.917969 L 158.7168,72.5 c -1.53895,-0.518556 -3.08767,-0.905036 -4.64453,-1.15625 h -0.002 c -1.55663,-0.267696 -3.11267,-0.400391 -4.66992,-0.400391 z m 0,0.5 c 1.52922,0 3.05806,0.131336 4.58789,0.394532 h 0.002 c 1.45894,0.235312 2.91043,0.606966 4.35547,1.082031 l -1.13672,5.77539 c -1.18023,-0.79145 -2.42519,-1.445603 -3.77734,-1.865234 -1.46805,-0.455602 -2.98694,-0.683594 -4.55469,-0.683594 -1.59118,0 -2.87647,0.294615 -3.84375,0.910157 -0.96654,0.615066 -1.48437,1.493853 -1.48437,2.550781 0,0.813547 0.34345,1.509099 0.99219,2.013672 l 0.004,0.0039 0.002,0.002 c 0.68194,0.497624 2.06049,1.014061 4.21094,1.630859 l 1.8418,0.523438 c 2.0939,0.605268 3.59934,1.473695 4.53516,2.583984 0.93614,1.110679 1.41015,2.570954 1.41015,4.419922 0,2.95753 -1.10343,5.237937 -3.33789,6.921875 -2.21649,1.665539 -5.32924,2.513668 -9.35937,2.513668 -1.71171,0 -3.42244,-0.14894 -5.13477,-0.445308 h -0.002 c -1.62469,-0.268152 -3.21488,-0.6901 -4.7793,-1.230469 l 1.16211,-5.828125 c 1.35427,0.846898 2.76148,1.548136 4.24805,2.017578 h 0.002 c 1.59853,0.487975 3.18436,0.732422 4.75391,0.732422 1.85373,0 3.3173,-0.308372 4.38671,-0.957031 1.08485,-0.664908 1.66407,-1.638989 1.66407,-2.828125 0,-0.817985 -0.29152,-1.502416 -0.85938,-1.980469 -0.29467,-0.255383 -0.77114,-0.497191 -1.45898,-0.771485 -0.68785,-0.274293 -1.58292,-0.573392 -2.69141,-0.898437 h -0.002 l -2.18945,-0.597656 -0.004,-0.002 c -1.99101,-0.588176 -3.42692,-1.437948 -4.33008,-2.53125 -0.90374,-1.110922 -1.36133,-2.555704 -1.36133,-4.371094 0,-2.720894 1.08202,-4.878797 3.28711,-6.548828 2.20416,-1.685533 5.14868,-2.53711 8.86133,-2.53711 z"
         id="path2357" /><path
         style="color:#000000;-inkscape-font-specification:'monospace Bold Italic';fill:#010101;stroke:none;-inkscape-stroke:none"
         d="m 183.35742,70.943359 c -1.71923,0 -3.30402,0.445367 -4.73633,1.332032 -1.09512,0.665353 -1.95565,1.60132 -2.6914,2.673828 l 0.63476,-3.333985 h -7.80273 l -5.5,28.382813 h 7.80469 l 3.05078,-15.861328 c 0.42635,-2.197374 1.11494,-3.8674 2.04101,-5.017578 0.94326,-1.151092 2.02859,-1.701172 3.31641,-1.701172 0.86588,0 1.48075,0.234468 1.9082,0.691406 l 0.002,0.002 0.002,0.002 c 0.42537,0.440035 0.65039,1.096599 0.65039,2.017578 0,0.438868 -0.0235,0.87737 -0.0723,1.316407 v 0.0039 l -0.002,0.0039 c -0.0325,0.422 -0.0887,0.845153 -0.16992,1.267578 l -3.36914,17.275391 h 7.80469 l 3.50976,-18.125 0.0391,-0.201172 v -0.002 c 0.14987,-0.782664 0.2588,-1.491305 0.32618,-2.128906 0.0841,-0.639136 0.12695,-1.214754 0.12695,-1.726563 0,-2.152006 -0.59089,-3.855343 -1.78906,-5.054687 -1.19948,-1.216856 -2.91396,-1.816407 -5.08399,-1.816407 z m 0,0.5 c 2.07889,0 3.6356,0.561196 4.72656,1.667969 h 0.002 c 1.09099,1.090988 1.64453,2.640538 1.64453,4.703125 0,0.484031 -0.0412,1.037893 -0.12305,1.660156 v 0.0039 0.0039 c -0.0655,0.62196 -0.172,1.319177 -0.32031,2.09375 l -3.4707,17.921875 h -6.78516 l 3.25195,-16.681641 c 0.0842,-0.437993 0.14371,-0.876038 0.17774,-1.314453 0.0508,-0.45722 0.0762,-0.913705 0.0762,-1.371094 0,-1.003318 -0.25287,-1.807534 -0.78906,-2.363281 l -0.002,-0.002 c -0.53512,-0.57076 -1.31277,-0.847656 -2.27148,-0.847656 -1.43416,0 -2.68789,0.643885 -3.70313,1.882812 l -0.002,0.002 c -0.99873,1.239802 -1.70602,2.988332 -2.14258,5.238282 l -2.97265,15.457031 h -6.78711 l 5.30664,-27.382813 h 6.78711 L 175.2207,76 l 0.4668,0.162109 c 0.77777,-1.490728 1.84008,-2.638119 3.19531,-3.460937 v -0.002 h 0.002 c 1.35605,-0.839459 2.83922,-1.25586 4.47265,-1.25586 z"
         id="path2359" /><path
         style="color:#000000;-inkscape-font-specification:'monospace Bold Italic';fill:#010101;stroke:none;-inkscape-stroke:none"
         d="m 210.06445,58.046875 -0.0391,0.201172 -1.72656,8.8125 h 7.80469 l 1.76562,-9.013672 z m 0.41211,0.5 h 6.78516 l -1.57031,8.013672 h -6.78516 z m -10.19726,13.068359 -0.0391,0.203125 -1.12695,5.898438 h 7.14453 l -3.16406,16.179687 h -9.08789 l -1.16602,6.101563 h 25.95313 l 1.16601,-6.101563 h -9.06054 l 4.33203,-22.28125 z m 0.41406,0.5 h 13.92969 l -4.33203,22.28125 h 9.0625 l -0.97461,5.101563 h -24.9336 l 0.97461,-5.101563 h 9.08594 l 3.35937,-17.179687 h -7.14648 z"
         id="path2361" /><path
         style="color:#000000;-inkscape-font-specification:'monospace Bold Italic';fill:#010101;stroke:none;-inkscape-stroke:none"
         d="m 237.10156,63.697266 -1.51953,7.917968 h -7.14453 l -1.16602,6.101563 h 7.14258 l -2.45508,12.548828 v 0.002 c -0.1497,0.831647 -0.268,1.531389 -0.35156,2.099609 v 0.0039 0.0039 c -0.0671,0.570242 -0.10156,1.034018 -0.10156,1.398437 0,2.195968 0.7441,3.836483 2.22851,4.814454 h 0.002 l 0.002,0.002 c 1.50296,0.961195 3.94519,1.408203 7.35352,1.408203 h 6.30664 l 1.16601,-6.101563 h -5.90429 c -1.2903,0 -2.16443,-0.163786 -2.58008,-0.412109 -0.42156,-0.267666 -0.63086,-0.68839 -0.63086,-1.378906 0,-0.111942 0.0164,-0.295875 0.0488,-0.539063 0.0322,-0.241739 0.0809,-0.527454 0.14648,-0.855469 v -0.002 l 2.54883,-12.992187 h 9.53711 l 1.16601,-6.101563 h -9.5332 l 1.54297,-7.917968 h -0.30469 z m 0.41211,0.5 h 6.78516 l -1.54297,7.917968 h 9.53516 l -0.97461,5.101563 h -9.53321 l -2.6289,13.396484 c -0.067,0.33499 -0.11827,0.631084 -0.15235,0.886719 -0.034,0.254733 -0.0527,0.451854 -0.0527,0.605469 0,0.802436 0.28999,1.441603 0.86328,1.804687 l 0.004,0.002 h 0.002 c 0.58094,0.348563 1.51162,0.484375 2.8418,0.484375 h 5.29882 l -0.97461,5.101563 h -5.89257 c -3.36094,0 -5.72975,-0.464828 -7.08203,-1.328125 -1.33713,-0.880932 -2.00391,-2.310336 -2.00391,-4.396485 0,-0.331221 0.0325,-0.778984 0.0977,-1.333984 v -0.0059 c 0.0822,-0.558576 0.19744,-1.248443 0.3457,-2.072266 v -0.0039 l 2.57226,-13.140625 H 227.875 l 0.97656,-5.101563 h 7.14453 z"
         id="path2363" /><path
         style="color:#000000;-inkscape-font-specification:'monospace Bold Italic';fill:#010101;stroke:none;-inkscape-stroke:none"
         d="m 274.42773,70.943359 c -4.96855,0 -9.03339,1.672569 -12.13281,5.007813 -3.08245,3.335112 -4.62304,7.682721 -4.62305,12.992187 0,3.618043 1.0854,6.510828 3.26172,8.619141 h 0.002 c 2.19364,2.108617 5.215,3.1582 9.01172,3.1582 1.39464,0 2.77162,-0.14401 4.13281,-0.42968 l -0.002,0.002 c 1.37826,-0.26893 2.71374,-0.681723 4.00782,-1.236329 l 0.12109,-0.05078 0.0254,-0.128906 1.50391,-7.412109 -0.47852,0.273437 c -1.49854,0.85631 -2.90324,1.496875 -4.21094,1.921875 -1.29036,0.424677 -2.49999,0.634766 -3.63085,0.634766 -2.01574,0 -3.47419,-0.507373 -4.42774,-1.492188 -0.95358,-0.984846 -1.44726,-2.497284 -1.44726,-4.582031 0,-3.241662 0.86151,-5.845402 2.57812,-7.853516 1.73314,-2.008491 3.94627,-3 6.70703,-3 1.26468,0 2.44156,0.227776 3.53906,0.679688 1.09676,0.451607 2.14139,1.14532 3.13477,2.089844 l 0.33008,0.3125 1.4414,-7.294922 -0.15625,-0.08789 c -1.28117,-0.724874 -2.63943,-1.256437 -4.07226,-1.59375 h -0.002 c -1.43199,-0.353614 -2.96958,-0.529297 -4.61329,-0.529297 z m 0,0.5 c 1.60869,0 3.10704,0.170494 4.4961,0.513672 l 0.002,0.002 c 1.33028,0.313008 2.58411,0.820574 3.7793,1.478516 L 281.5,79.544922 c -0.93531,-0.830879 -1.90488,-1.533327 -2.94336,-1.960938 -1.15974,-0.47754 -2.40596,-0.716796 -3.73047,-0.716797 -2.88233,0 -5.26724,1.066178 -7.08594,3.173829 v 0.002 c -1.80202,2.108027 -2.69921,4.846847 -2.69921,8.177734 0,2.164174 0.51854,3.823268 1.58984,4.929688 1.07133,1.10645 2.68475,1.644531 4.78516,1.644531 1.19216,0 2.45387,-0.222207 3.78515,-0.660156 1.20171,-0.390557 2.49783,-1.016121 3.83789,-1.75 l -1.26758,6.25 c -1.22631,0.516415 -2.48575,0.911712 -3.78906,1.166015 l -0.002,0.002 h -0.002 c -1.32759,0.278622 -2.67074,0.417962 -4.03125,0.417962 -3.70457,0 -6.57569,-1.010815 -8.66407,-3.017571 -2.0726,-2.007829 -3.11132,-4.740948 -3.11133,-8.259766 0,-5.21216 1.49736,-9.413228 4.48829,-12.65039 l 0.002,-0.002 c 3.00814,-3.23592 6.90959,-4.847657 11.76562,-4.847657 z"
         id="path2365" /><path
         style="color:#000000;-inkscape-font-specification:'monospace Bold Italic';fill:#010101;stroke:none;-inkscape-stroke:none"
         d="m 293.69141,60.759766 -7.64258,39.238281 h 7.80469 l 3.05273,-15.861328 c 0.42654,-2.214735 1.11395,-3.887067 2.03906,-5.019532 0.9261,-1.149639 2.01112,-1.699218 3.31641,-1.699218 0.86588,0 1.48074,0.234467 1.9082,0.691406 l 0.002,0.002 0.002,0.002 c 0.42536,0.440035 0.65039,1.096598 0.65039,2.017578 0,0.438868 -0.0235,0.87737 -0.0723,1.316407 v 0.0039 l -0.002,0.0039 c -0.0325,0.422 -0.0887,0.845153 -0.16992,1.267578 l -3.36914,17.275391 h 7.80468 l 3.50977,-18.125 0.0391,-0.201172 v -0.002 c 0.14987,-0.782664 0.2588,-1.491305 0.32617,-2.128906 0.0841,-0.639136 0.12696,-1.214754 0.12696,-1.726563 0,-2.152006 -0.59089,-3.855343 -1.78906,-5.054687 -1.19948,-1.216856 -2.91396,-1.816407 -5.08399,-1.816407 -1.71923,0 -3.30402,0.445367 -4.73633,1.332032 -1.0939,0.664615 -1.95411,1.599047 -2.68945,2.669921 l 2.72461,-14.185546 z m 0.41015,0.5 h 6.73828 L 298.00781,76 l 0.4668,0.162109 c 0.77777,-1.490728 1.84009,-2.638119 3.19531,-3.460937 v -0.002 h 0.002 c 1.35606,-0.839459 2.83923,-1.25586 4.47266,-1.25586 2.07889,0 3.6356,0.561196 4.72656,1.667969 h 0.002 c 1.09099,1.090988 1.64453,2.640538 1.64453,4.703125 0,0.484031 -0.0412,1.037893 -0.12305,1.660156 v 0.0039 0.0039 c -0.0655,0.62196 -0.172,1.319177 -0.32031,2.09375 l -3.4707,17.921875 h -6.78516 l 3.25195,-16.681641 h 0.002 c 0.0842,-0.437993 0.14175,-0.876038 0.17578,-1.314453 0.0508,-0.45722 0.0762,-0.913705 0.0762,-1.371094 0,-1.003317 -0.25288,-1.807534 -0.78906,-2.363281 l -0.002,-0.002 c -0.53513,-0.570756 -1.31277,-0.847656 -2.27148,-0.847656 -1.44987,0 -2.70589,0.644386 -3.70508,1.884765 -1.00018,1.224359 -1.70606,2.971733 -2.14258,5.238282 l -2.97265,15.457031 h -6.78516 z"
         id="path2367" /></g><path
       id="path883"
       style="font-style:italic;font-weight:bold;font-size:50.0944px;line-height:1.25;font-family:monospace;-inkscape-font-specification:'monospace Bold Italic';letter-spacing:-2.64583px;word-spacing:0px;display:inline;fill:none;stroke:#010101;stroke-width:0.5;stroke-dasharray:none;stroke-opacity:1"
       d="m 258.28366,65.411483 -3.44888,17.806993 h -7.16683 l 3.2532,-16.681826 q 0.12231,-0.635964 0.17123,-1.271928 0.0734,-0.660425 0.0734,-1.320849 0,-1.418689 -0.70935,-2.152493 -0.70934,-0.758265 -2.05465,-0.758265 -2.03019,0 -3.44888,1.761131 -1.41869,1.736671 -2.05466,5.038792 l -2.95968,15.385438 h -7.16682 l 7.41143,-38.060002 h 7.1179 l -2.83738,14.773934 q 1.17409,-2.250335 3.22874,-3.497802 2.05466,-1.271929 4.52513,-1.271929 3.1309,0 4.81865,1.712211 1.68775,1.687751 1.68775,4.794191 0,0.733804 -0.1223,1.66329 -0.0978,0.929486 -0.31798,2.079114 z M 227.19894,82.31345 q -1.88343,0.807185 -3.88916,1.198548 -1.98127,0.415817 -4.01147,0.415817 -5.52799,0 -8.68335,-3.033054 -3.1309,-3.033059 -3.1309,-8.291993 0,-7.753869 4.47621,-12.59698 4.50067,-4.843111 11.74087,-4.843111 2.3971,0 4.47621,0.513664 2.07911,0.489203 3.93809,1.54099 l -1.29639,6.555321 q -1.49207,-1.418689 -3.15536,-2.103573 -1.66329,-0.684885 -3.57119,-0.684885 -4.15822,0 -6.77546,3.03306 -2.59278,3.033059 -2.59278,7.87617 0,3.1309 1.49207,4.67189 1.49207,1.540989 4.52513,1.540989 1.71221,0 3.64457,-0.635964 1.95681,-0.635964 4.18268,-1.907892 z m -28.03857,-34.268678 -1.51653,7.77833 h 9.36824 l -1.05178,5.503535 h -9.36824 l -2.54386,12.963882 q -0.0978,0.489203 -0.14676,0.856106 -0.0489,0.366902 -0.0489,0.562583 0,1.100707 0.7338,1.56545 0.73381,0.440283 2.66616,0.440283 h 5.50354 l -1.05179,5.503535 h -5.99274 q -4.98987,0 -7.09344,-1.345309 -2.07912,-1.369768 -2.07912,-4.525128 0,-0.513664 0.0978,-1.345309 0.1223,-0.831645 0.34245,-2.054653 l 2.47047,-12.62144 h -7.02006 l 1.05178,-5.503535 h 7.02007 l 1.49207,-7.77833 z m -35.93507,7.77833 h 14.18689 l -4.25606,21.891839 h 8.90349 l -1.05178,5.503535 h -24.99828 l 1.05179,-5.503535 h 8.92795 l 3.20428,-16.388304 h -7.02006 z m 9.61285,-13.330785 h 7.16682 l -1.63883,8.365373 h -7.16682 z m -17.72948,22.919166 -3.44889,17.806993 h -7.16682 l 3.2532,-16.681826 q 0.1223,-0.635964 0.17122,-1.271928 0.0734,-0.660425 0.0734,-1.320849 0,-1.418689 -0.70934,-2.152493 -0.70935,-0.758265 -2.05466,-0.758265 -2.00573,0 -3.44888,1.761131 -1.41869,1.761131 -2.05465,5.038792 l -2.95968,15.385438 h -7.16683 l 5.30786,-27.395374 h 7.16682 l -0.78272,4.109306 q 1.17409,-2.250335 3.22874,-3.497802 2.05465,-1.271929 4.52513,-1.271929 3.1309,0 4.81865,1.712211 1.68775,1.687751 1.68775,4.794191 0,0.733804 -0.1223,1.66329 -0.0978,0.929486 -0.31798,2.079114 z m -27.70923,-8.732276 -1.22301,6.21288 q -1.83451,-1.296389 -3.96254,-1.956813 -2.12803,-0.660424 -4.40283,-0.660424 -2.29925,0 -3.64456,0.856105 -1.34531,0.856106 -1.34531,2.299255 0,1.100707 0.88057,1.785591 0.90502,0.660425 4.06038,1.56545 l 1.81005,0.513664 q 3.1309,0.905025 4.57405,2.617236 1.44315,1.712211 1.44315,4.500669 0,4.451748 -3.3755,6.995604 -3.35104,2.519391 -9.34378,2.519391 -2.54386,0 -5.08771,-0.440277 -2.5194,-0.415823 -4.94095,-1.271929 l 1.24746,-6.261799 q 2.10358,1.369768 4.42729,2.103573 2.32372,0.709345 4.59851,0.709345 2.69062,0 4.18269,-0.905026 1.51653,-0.929486 1.51653,-2.568317 0,-1.125167 -0.75827,-1.761131 -0.7338,-0.635964 -3.987,-1.58991 l -2.1525,-0.587044 q -2.98414,-0.880565 -4.37836,-2.568316 -1.39423,-1.712211 -1.39423,-4.451748 0,-4.109306 3.32658,-6.628702 3.32658,-2.543857 8.85457,-2.543857 2.2748,0 4.54959,0.391363 2.2748,0.366902 4.52513,1.125167 z" /></g></svg>
