<?xml version="1.0" encoding="UTF-8" standalone="no"?>
<!-- Created with Inkscape (http://www.inkscape.org/) -->

<svg
   width="130.41623mm"
   height="130.49529mm"
   viewBox="0 0 130.41623 130.49529"
   version="1.1"
   id="svg5"
   inkscape:version="1.2.2 (1:1.2.2+202305151914+b0a8486541)"
   sodipodi:docname="logo.svg"
   inkscape:export-filename="logo.png"
   inkscape:export-xdpi="99.717651"
   inkscape:export-ydpi="99.717651"
   xmlns:inkscape="http://www.inkscape.org/namespaces/inkscape"
   xmlns:sodipodi="http://sodipodi.sourceforge.net/DTD/sodipodi-0.dtd"
   xmlns="http://www.w3.org/2000/svg"
   xmlns:svg="http://www.w3.org/2000/svg">
  <sodipodi:namedview
     id="namedview7"
     pagecolor="#505050"
     bordercolor="#eeeeee"
     borderopacity="1"
     inkscape:showpageshadow="0"
     inkscape:pageopacity="0"
     inkscape:pagecheckerboard="0"
     inkscape:deskcolor="#505050"
     inkscape:document-units="mm"
     showgrid="false"
     inkscape:zoom="0.5662023"
     inkscape:cx="-71.529205"
     inkscape:cy="227.83376"
     inkscape:window-width="1920"
     inkscape:window-height="1118"
     inkscape:window-x="0"
     inkscape:window-y="25"
     inkscape:window-maximized="1"
     inkscape:current-layer="layer2"
     showguides="true">
    <sodipodi:guide
       position="65.588224,49.522169"
       orientation="1,0"
       id="guide1972"
       inkscape:locked="false" />
    <sodipodi:guide
       position="116.60129,63.935384"
       orientation="0,-1"
       id="guide1974"
       inkscape:locked="false" />
  </sodipodi:namedview>
  <defs
     id="defs2" />
  <g
     inkscape:label="Layer 1"
     inkscape:groupmode="layer"
     id="layer1"
     style="display:inline"
     transform="translate(-39.88579,-92.841604)">
    <circle
       style="display:none;fill:#fbfbfb;fill-opacity:1;stroke-width:0.499999;stroke-linecap:round;stroke-linejoin:round;stop-color:#000000"
       id="path234"
       cx="104.84258"
       cy="158.30244"
       r="65.963661" />
  </g>
  <g
     inkscape:groupmode="layer"
     id="layer2"
     inkscape:label="Layer 2"
     transform="translate(-39.88579,-92.841604)">
    <path
       style="color:#000000;display:inline;fill:#545454;fill-opacity:1;stroke:none;stroke-linecap:round;stroke-linejoin:round;stroke-opacity:1;-inkscape-stroke:none"
       d="m 160.01019,126.25911 c 17.75198,29.70498 7.22027,68.81078 -22.66425,86.25881 -29.88451,17.44803 -68.810773,7.22027 -86.258813,-22.66424 -17.44803,-29.88452 -7.22027,-68.81078 22.66424,-86.25881 13.32338,-8.219251 18.66217,-6.679096 18.66217,-6.679096 l -1.05907,3.554816 c -9.45548,2.82583 -16.56086,6.6053 -23.84268,13.79646 0,0 12.55771,18.63704 15.32844,29.30802 1.39638,5.37791 -7.03918,14.53473 2.23834,27.64934 8.15672,11.53025 23.521293,15.45965 35.718303,8.33844 12.19703,-7.12122 17.18316,-23.91809 11.51484,-36.85445 -4.41223,-13.69523 -25.16483,-35.24726 -16.64955,-46.85746 0,0 26.81437,1.068518 44.34803,30.40817 z"
       id="path1109"
       sodipodi:nodetypes="sssccccsssccs"
       inkscape:label="gray" />
    <path
       id="path1485"
       style="display:inline;fill:#4989d6;fill-opacity:1;stroke:none;stroke-width:0.264583px;stroke-linecap:butt;stroke-linejoin:miter;stroke-opacity:1"
       d="m 134.6154,212.02555 c -11.12974,4.49486 -30.10636,8.86937 -40.898163,7.01499 l 9.349173,-36.34162 c 4.27643,0.76516 10.09488,-0.16305 15.03431,-1.62097 z m -55.176353,1.41708 c -15.40067,-9.8931 -26.23781,-20.66455 -29.07163,-32.97633 l 32.98949,-12.15852 c 2.74824,3.66259 4.211,7.1553 11.32135,11.39453 z m 45.499333,-37.12772 22.67174,26.7819 c 10.25431,-9.195 16.56225,-20.53937 18.45443,-31.03008 l -32.82677,-8.01534 c -1.36746,4.00453 -4.42106,9.08355 -8.2994,12.26352 z m 9.32906,-19.28838 32.49709,3.63126 c -0.32273,-12.26349 -4.23502,-23.66726 -8.76123,-34.92398 l -28.65903,10.09882 c 3.52264,6.18284 6.18631,12.76823 4.92317,21.1939 z m -4.96104,-21.24235 22.24466,-17.35196 c -4.43558,-6.71721 -11.23641,-11.86002 -18.70643,-16.5574 l -13.13161,17.85813 z m -9.61216,-15.97952 7.57669,-20.662622 -11.20445,-3.435145 c -4.95364,2.021571 -1.54218,12.063577 3.62776,24.097767 z"
       sodipodi:nodetypes="ccccccccccccccccccccccccccccc"
       inkscape:label="blue" />
    <path
       style="display:inline;fill:#ffffff;fill-opacity:0.194316;stroke:none;stroke-width:0.264583px;stroke-linecap:butt;stroke-linejoin:miter;stroke-opacity:1"
       d="m 83.396337,167.69204 -32.66905,13.85291 5.86486,12.98068 30.64118,-20.69259 z m 19.565343,14.8737 -8.462863,35.65973 13.979323,0.93363 0.31508,-35.66153 z m 22.19358,-6.25813 22.74925,26.72816 7.80526,-9.34744 -26.93237,-21.45892 z m 9.42695,-20.01979 32.21897,1.92243 -0.5608,-12.45755 -31.61347,5.56462 z m -5.36724,-20.89343 20.82955,-19.2138 -5.00984,-5.80764 -18.67427,20.67025 z m -11.89365,-20.15337 9.4449,-16.261087 -4.39336,-1.52986 -7.34712,12.842927 z"
       id="path1555"
       inkscape:label="white" />
    <path
       id="path1520"
       style="display:inline;fill:#191919;fill-opacity:1;stroke:none;stroke-width:0.264583px;stroke-linecap:butt;stroke-linejoin:miter;stroke-opacity:1"
       d="m 133.56744,212.91385 -15.77903,-31.82351 7.60544,-5.02745 22.82981,26.66393 z m -38.914823,6.15144 -16.24105,-6.14954 15.76695,-33.09879 9.170623,3.05258 z m 38.457723,-54.45332 32.79943,8.38094 1.49821,-15.48098 -33.00131,-1.02786 z m -0.87117,-23.75456 26.0879,-14.89403 -8.05438,-10.47565 -21.72001,19.1671 z m -12.28101,-20.52737 16.12152,-17.55299 -9.79497,-4.015004 -9.16577,15.617894 z m -36.632723,47.95801 -33.05518,13.95035 -5.233,-16.1493 35.88053,-4.73947 z"
       sodipodi:nodetypes="cccccccccccccccccccccccccccccc"
       inkscape:label="black" />
    <path
       style="fill:#000000;fill-opacity:0.31558034;stroke:none;stroke-width:0.264583px;stroke-linecap:butt;stroke-linejoin:miter;stroke-opacity:1"
       d="m 60.076577,118.2756 17.5348,26.8442 -18.43534,-25.40552 z m -5.13412,7.65951 20.60795,23.47406 -21.51766,-21.76436 z m -4.70965,7.89598 24.20947,19.99437 -24.89037,-18.24873 z m -3.23174,8.45313 26.99125,16.19708 -27.61702,-13.95922 z m -1.78179,8.71662 28.93188,12.41861 -29.18049,-10.17436 z m 30.44001,18.01255 -30.69955,-8.66204 0.23216,2.29605 z m 1.66657,3.96655 -30.78313,-3.21868 0.56718,2.06189 z m 2.64339,4.29496 -31.33881,-0.0964 0.99173,2.18527 z m 3.13016,4.1726 -31.4521,3.19719 1.06616,1.86779 z m 4.40243,3.57156 -32.26421,6.21109 1.36558,1.74704 z m 5.62107,3.11341 -33.93941,8.8633 1.50026,1.79432 z m 4.8884,1.71551 -33.06734,13.60146 1.78897,1.59381 z m 4.980803,0.77641 -30.080043,19.00101 1.96597,1.17146 z m 5.09397,-0.0843 -26.497733,23.09142 2.17212,0.86472 z m 4.82218,-0.67264 -19.658323,27.91443 2.62166,0.25324 z m 4.44682,-1.46915 -11.44626,30.52385 2.3562,-0.10925 z m 3.95258,-2.28713 -4.29793,31.788 2.03073,-1.19527 z m 3.85588,-2.22585 0.79194,31.3451 1.81445,-0.8268 z m 10.333,27.03114 -6.27245,-31.43452 7.94557,30.86656 z m 7.46585,-5.234 -10.5817,-29.83747 12.12514,28.82525 z m 5.89008,-5.23293 -14.04221,-29.78907 15.36423,28.34455 z m 4.84627,-5.57958 -16.80899,-29.83435 18.02763,28.40669 z m 4.96453,-7.40835 -21.25685,-26.16606 22.99573,24.84869 z m 3.75549,-7.53973 -24.64086,-23.70938 25.52319,22.24408 z m 2.79254,-8.20571 -27.46601,-18.81649 28.18011,17.07381 z m 1.03688,-8.91767 -29.0897,-13.60516 29.57699,11.90974 z m 0.45294,-8.67986 -30.31215,-9.06424 30.047,7.40905 z m -1.31202,-7.26785 -30.49684,-5.3946 30.4093,3.81556 z m -1.27375,-6.92999 -30.90492,-2.84881 30.64999,1.35687 z m -2.50364,-6.063 -30.86676,-1.06792 29.95489,-0.22743 z m -3.67625,-6.0666 -29.86568,0.65074 29.66029,-1.93029 z m -3.7442,-5.58751 -29.31678,1.57328 28.76485,-2.72322 z m -3.71889,-4.6881 -27.79356,2.22918 27.83764,-3.41376 z m -5.06096,-5.36387 -25.07478,3.25267 24.59294,-4.62636 z m -5.31944,-4.57512 -21.23621,4.00586 20.5312,-4.84351 z m -3.94694,-3.46568 -18.85698,2.79138 17.44591,-3.65401 z m -5.91028,-2.95792 -14.37625,1.67713 13.01692,-2.27989 z m -4.60332,-2.271713 -10.16725,0.81886 9.21405,-1.427522 z"
       id="path1968"
       sodipodi:nodetypes="cccccccccccccccccccccccccccccccccccccccccccccccccccccccccccccccccccccccccccccccccccccccccccccccccccccccccccccccccccccccccccccccccccccccccccccccccccccccc"
       inkscape:label="tips" />
    <path
       style="color:#000000;display:inline;fill:#ffffff;fill-opacity:1;stroke:none;stroke-linecap:round;stroke-linejoin:round;stroke-opacity:1;-inkscape-stroke:none"
       d="m 161.79741,125.21564 c 17.75198,29.70498 6.18803,71.14921 -23.56744,88.81643 -32.25291,19.15007 -71.311493,6.65001 -88.759523,-23.23449 -17.44804,-29.88452 -6.48197,-71.25914 23.40255,-88.70717 13.32337,-8.219252 19.62783,-7.015489 19.62783,-7.015489 l -1.14636,5.395669 c -9.45548,2.82583 -7.17737,2.09223 -15.79413,7.04341 -25.10946,14.42786 -36.9595,52.20739 -20.92242,80.13383 16.03708,27.92643 49.927933,40.24859 81.199643,22.18593 31.27172,-18.06266 37.62313,-56.20624 21.6671,-82.25817 -15.95602,-26.05194 -41.8425,-31.72465 -41.8425,-31.72465 0,0 28.60159,0.02505 46.13525,29.3647 z"
       id="path1420"
       sodipodi:nodetypes="ssscccszzzcs"
       inkscape:label="bone" />
    <path
       style="color:#000000;display:inline;fill:none;fill-opacity:1;stroke:#000000;stroke-linecap:round;stroke-linejoin:round;stroke-opacity:1;-inkscape-stroke:none"
       d="m 161.5334,125.36979 c 17.75198,29.70497 6.57616,71.20587 -23.28338,88.69661 -32.81555,19.22228 -70.050553,8.55303 -88.474743,-23.4468 -18.85423,-32.74675 -6.68962,-70.91472 23.19489,-88.36275 13.32338,-8.219253 19.40304,-6.793907 19.40304,-6.793907 l -1.01874,5.007647 c -9.45548,2.82583 -16.56086,6.6053 -23.84268,13.79646 0,0 11.48363,16.90614 15.05276,28.32157 1.83928,5.88273 -6.7635,15.52118 2.51402,28.63579 8.15672,11.53025 23.521293,15.45965 35.718303,8.33844 12.19703,-7.12122 17.18316,-23.91809 11.51484,-36.85445 -4.41223,-13.69523 -25.16483,-35.24726 -16.64955,-46.85746 0,0 28.33758,0.179195 45.87124,29.51885 z"
       id="path1518"
       sodipodi:nodetypes="sssccccsssccs"
       inkscape:label="outline" />
  </g>
  <g
     inkscape:groupmode="layer"
     id="layer3"
     inkscape:label="Layer 3"
     style="display:none">
    <text
       xml:space="preserve"
       style="font-style:normal;font-weight:normal;font-size:22.5778px;line-height:1.25;font-family:sans-serif;letter-spacing:0px;word-spacing:0px;fill:#000000;fill-opacity:1;stroke:none;stroke-width:0.264583"
       x="82.565948"
       y="53.437008"
       id="text2061"
       transform="rotate(41.479358)"><tspan
         sodipodi:role="line"
         id="tspan2059"
         style="font-style:normal;font-variant:normal;font-weight:bold;font-stretch:normal;font-size:22.5778px;font-family:FreeMono;-inkscape-font-specification:'FreeMono Bold';stroke-width:0.264583"
         x="82.565948"
         y="53.437008">S</tspan></text>
    <text
       xml:space="preserve"
       style="font-style:normal;font-weight:normal;font-size:22.5778px;line-height:1.25;font-family:sans-serif;letter-spacing:0px;word-spacing:0px;fill:#000000;fill-opacity:1;stroke:none;stroke-width:0.264583"
       x="55.757111"
       y="118.76727"
       id="text2061-3"
       transform="rotate(-5.3807527)"><tspan
         sodipodi:role="line"
         id="tspan2059-6"
         style="font-style:normal;font-variant:normal;font-weight:bold;font-stretch:normal;font-size:22.5778px;font-family:FreeMono;-inkscape-font-specification:'FreeMono Bold';stroke-width:0.264583"
         x="55.757111"
         y="118.76727">n</tspan></text>
    <text
       xml:space="preserve"
       style="font-style:normal;font-weight:normal;font-size:22.5778px;line-height:1.25;font-family:sans-serif;letter-spacing:0px;word-spacing:0px;fill:#000000;fill-opacity:1;stroke:none;stroke-width:0.264583"
       x="55.757111"
       y="118.76727"
       id="text2182"
       transform="rotate(-5.3807527)"><tspan
         sodipodi:role="line"
         id="tspan2180"
         style="font-style:normal;font-variant:normal;font-weight:bold;font-stretch:normal;font-size:22.5778px;font-family:FreeMono;-inkscape-font-specification:'FreeMono Bold';stroke-width:0.264583"
         x="55.757111"
         y="118.76727">n</tspan></text>
    <text
       xml:space="preserve"
       style="font-style:normal;font-weight:normal;font-size:22.5778px;line-height:1.25;font-family:sans-serif;letter-spacing:0px;word-spacing:0px;fill:#000000;fill-opacity:1;stroke:none;stroke-width:0.264583"
       x="-17.345293"
       y="141.14581"
       id="text2061-7"
       transform="rotate(-55.07219)"><tspan
         sodipodi:role="line"
         id="tspan2059-5"
         style="font-style:normal;font-variant:normal;font-weight:bold;font-stretch:normal;font-size:22.5778px;font-family:FreeMono;-inkscape-font-specification:'FreeMono Bold';stroke-width:0.264583"
         x="-17.345293"
         y="141.14581">i</tspan></text>
    <text
       xml:space="preserve"
       style="font-style:normal;font-weight:normal;font-size:22.5778px;line-height:1.25;font-family:sans-serif;letter-spacing:0px;word-spacing:0px;fill:#000000;fill-opacity:1;stroke:none;stroke-width:0.264583"
       x="-17.345293"
       y="141.14581"
       id="text2203"
       transform="rotate(-55.07219)"><tspan
         sodipodi:role="line"
         id="tspan2201"
         style="font-style:normal;font-variant:normal;font-weight:bold;font-stretch:normal;font-size:22.5778px;font-family:FreeMono;-inkscape-font-specification:'FreeMono Bold';stroke-width:0.264583"
         x="-17.345293"
         y="141.14581">i</tspan></text>
    <text
       xml:space="preserve"
       style="font-style:normal;font-weight:normal;font-size:19.7517px;line-height:1.25;font-family:sans-serif;letter-spacing:0px;word-spacing:0px;fill:#000000;fill-opacity:1;stroke:none;stroke-width:0.231465"
       x="-77.428749"
       y="103.10303"
       id="text2061-35"
       transform="rotate(-100.86864)"><tspan
         sodipodi:role="line"
         id="tspan2059-62"
         style="font-style:normal;font-variant:normal;font-weight:bold;font-stretch:normal;font-size:19.7517px;font-family:FreeMono;-inkscape-font-specification:'FreeMono Bold';stroke-width:0.231465"
         x="-77.428749"
         y="103.10303">t</tspan></text>
    <text
       xml:space="preserve"
       style="font-style:normal;font-weight:normal;font-size:18.2705px;line-height:1.25;font-family:sans-serif;letter-spacing:0px;word-spacing:0px;fill:#000000;fill-opacity:1;stroke:none;stroke-width:0.214107"
       x="-93.376656"
       y="48.413486"
       id="text2224"
       transform="rotate(-138.21112)"><tspan
         sodipodi:role="line"
         id="tspan2222"
         style="font-style:normal;font-variant:normal;font-weight:bold;font-stretch:normal;font-size:18.2705px;font-family:FreeMono;-inkscape-font-specification:'FreeMono Bold';stroke-width:0.214107"
         x="-93.376656"
         y="48.413486">c</tspan></text>
    <text
       xml:space="preserve"
       style="font-style:normal;font-weight:normal;font-size:10.8214px;line-height:1.25;font-family:sans-serif;letter-spacing:0px;word-spacing:0px;fill:#000000;fill-opacity:1;stroke:none;stroke-width:0.126813"
       x="-76.754059"
       y="31.991545"
       id="text2228"
       transform="rotate(-151.85542)"><tspan
         sodipodi:role="line"
         id="tspan2226"
         style="font-style:normal;font-variant:normal;font-weight:bold;font-stretch:normal;font-size:10.8214px;font-family:FreeMono;-inkscape-font-specification:'FreeMono Bold';stroke-width:0.126813"
         x="-76.754059"
         y="31.991545">h</tspan></text>
  </g>
</svg>
